<?xml version="1.0" standalone="no"?>
<!DOCTYPE svg PUBLIC "-//W3C//DTD SVG 1.1//EN" "http://www.w3.org/Graphics/SVG/1.1/DTD/svg11.dtd" >
<svg xmlns="http://www.w3.org/2000/svg">
<metadata>Generated by IcoMoon</metadata>
<defs>
<font id="icomoon" horiz-adv-x="1024">
<font-face units-per-em="1024" ascent="960" descent="-64" />
<missing-glyph horiz-adv-x="1024" />
<glyph unicode="&#x20;" horiz-adv-x="512" d="" />
<glyph unicode="&#xe900;" glyph-name="contact-support" d="M874.338 648.862c-17.723 169.354-159.508 281.6-366.277 281.6s-352.492-116.185-366.277-289.477c-88.615-17.723-141.785-96.492-141.785-214.646 0-104.369 41.354-179.2 114.215-204.8 9.846-3.938 17.723-5.908 27.569-5.908 15.754 0 31.508 3.938 43.323 13.785 21.662 13.785 33.477 37.415 33.477 63.015v320.985c0 175.262 155.569 238.277 289.477 238.277s291.446-63.015 291.446-238.277v-315.077c0 0 0-1.969 0-1.969h-1.969c0-137.846-9.846-185.108-192.985-185.108-15.754 37.415-51.2 63.015-96.492 63.015-57.108 0-104.369-47.262-104.369-104.369s47.262-104.369 104.369-104.369c43.323 0 82.708 27.569 96.492 66.954 135.877 0 242.215 21.662 265.846 189.046 1.969 0 3.938 0 3.938 0 7.877 0 17.723 1.969 27.569 5.908 72.862 27.569 114.215 102.4 114.215 206.769 1.969 120.123-53.169 198.892-141.785 214.646zM139.815 294.4c-53.169 21.662-61.046 90.585-61.046 131.938 0 43.323 9.846 110.277 61.046 131.938v-263.877zM508.062 44.308c-13.785 0-25.6 11.815-25.6 25.6s11.815 25.6 25.6 25.6 25.6-11.815 25.6-25.6-11.815-25.6-25.6-25.6zM937.354 434.215c0-41.354-7.877-112.246-61.046-133.908v265.846c53.169-21.662 63.015-88.615 61.046-131.938z" />
<glyph unicode="&#xe901;" glyph-name="current-deals" horiz-adv-x="985" d="M401.723 652.8c-51.2 0-92.554-41.354-92.554-94.523 0-51.2 41.354-94.523 92.554-94.523s92.554 43.323 92.554 94.523c0 51.2-41.354 94.523-92.554 94.523zM401.723 587.815c15.754 0 29.538-13.785 29.538-29.538 0-17.723-13.785-29.538-29.538-29.538s-29.538 13.785-29.538 29.538c-1.969 15.754 11.815 29.538 29.538 29.538zM622.277 404.677c-51.2 0-92.554-41.354-92.554-94.523 0-51.2 41.354-94.523 92.554-94.523s92.554 43.323 92.554 94.523c1.969 51.2-41.354 94.523-92.554 94.523zM622.277 339.692c15.754 0 29.538-13.785 29.538-29.538s-13.785-29.538-29.538-29.538-29.538 13.785-29.538 29.538 13.785 29.538 29.538 29.538zM327.077 292.743l324.311 327.352 44.766-44.35-324.311-327.352-44.766 44.35zM502.154-64c-43.323 0-72.862 35.446-98.462 63.015-9.846 11.815-25.6 31.508-33.477 33.477-9.846 1.969-33.477-1.969-49.231-5.908-37.415-9.846-78.769-19.692-114.215 5.908-33.477 25.6-37.415 68.923-41.354 108.308-1.969 17.723-3.938 41.354-7.877 49.231-5.908 7.877-27.569 15.754-43.323 23.631-33.477 13.785-76.8 31.508-88.615 72.862-11.815 39.385 9.846 76.8 29.538 108.308 9.846 15.754 21.662 37.415 21.662 47.262s-13.785 31.508-21.662 47.262c-19.692 33.477-41.354 68.923-29.538 108.308 13.785 41.354 55.138 59.077 88.615 72.862 15.754 5.908 37.415 15.754 43.323 23.631 3.938 9.846 5.908 33.477 7.877 51.2 3.938 39.385 5.908 82.708 41.354 108.308 33.477 25.6 76.8 15.754 114.215 5.908 17.723-3.938 41.354-9.846 49.231-5.908 7.877 1.969 23.631 21.662 33.477 33.477 23.631 27.569 53.169 63.015 98.462 63.015 43.323 0 72.862-35.446 98.462-63.015 9.846-11.815 25.6-31.508 33.477-33.477 9.846-1.969 33.477 1.969 49.231 5.908 37.415 9.846 78.769 19.692 114.215-5.908 33.477-25.6 37.415-68.923 41.354-106.338 1.969-17.723 3.938-41.354 9.846-49.231s27.569-15.754 43.323-23.631c33.477-13.785 76.8-31.508 88.615-72.862 11.815-39.385-9.846-76.8-29.538-108.308-9.846-15.754-21.662-37.415-21.662-47.262s13.785-31.508 21.662-47.262c19.692-33.477 41.354-68.923 29.538-108.308-13.785-41.354-55.138-59.077-88.615-72.862-15.754-5.908-37.415-15.754-43.323-23.631s-7.877-31.508-7.877-49.231c-3.938-39.385-5.908-82.708-41.354-108.308-33.477-25.6-76.8-15.754-114.215-5.908-17.723 3.938-41.354 9.846-49.231 5.908-7.877-1.969-23.631-21.662-33.477-33.477-27.569-31.508-57.108-66.954-100.431-66.954zM362.338 113.231c9.846 0 21.662-1.969 31.508-3.938 29.538-9.846 49.231-33.477 70.892-57.108 9.846-11.815 29.538-35.446 37.415-35.446s27.569 23.631 37.415 35.446c19.692 23.631 41.354 47.262 70.892 57.108s63.015 1.969 92.554-5.908c13.785-3.938 41.354-9.846 49.231-5.908 5.908 5.908 7.877 33.477 7.877 49.231 1.969 31.508 5.908 64.985 23.631 90.585s47.262 37.415 76.8 49.231c13.785 5.908 41.354 17.723 45.292 23.631 0 7.877-13.785 31.508-21.662 43.323-15.754 25.6-33.477 55.138-33.477 88.615 0 31.508 17.723 61.046 33.477 88.615 7.877 13.785 21.662 37.415 21.662 45.292-3.938 5.908-29.538 17.723-45.292 23.631-29.538 11.815-59.077 23.631-76.8 49.231s-21.662 57.108-23.631 90.585c-1.969 15.754-3.938 45.292-9.846 51.2-5.908 1.969-33.477-3.938-49.231-7.877-29.538-7.877-63.015-15.754-92.554-5.908s-49.231 33.477-68.923 57.108c-9.846 11.815-29.538 35.446-37.415 35.446s-27.569-23.631-37.415-35.446c-19.692-23.631-41.354-47.262-70.892-57.108s-63.015-1.969-92.554 5.908c-13.785 3.938-41.354 9.846-49.231 5.908-3.938-5.908-7.877-33.477-7.877-49.231-1.969-31.508-5.908-64.985-23.631-90.585s-47.262-37.415-76.8-49.231c-13.785-5.908-41.354-17.723-45.292-23.631 0-7.877 13.785-31.508 21.662-43.323 15.754-25.6 33.477-55.138 33.477-88.615 0-31.508-17.723-61.046-33.477-88.615-7.877-13.785-21.662-37.415-21.662-45.292 3.938-5.908 29.538-17.723 45.292-23.631 29.538-11.815 59.077-23.631 76.8-49.231s21.662-57.108 23.631-90.585c1.969-15.754 3.938-45.292 9.846-51.2 5.908-3.938 33.477 3.938 49.231 7.877 17.723 3.938 39.385 9.846 59.077 9.846z" />
<glyph unicode="&#xe902;" glyph-name="home" d="M848.457-32.653h-183.902c-45.976 0-83.592 37.616-83.592 83.592v234.057h-148.376v-238.237c0-43.886-31.347-79.412-73.143-79.412h-196.441c-45.976 0-83.592 37.616-83.592 83.592v440.947h-2.090c-35.527 0-64.784 22.988-75.233 56.424s2.090 68.963 31.347 87.771l428.408 290.482c6.269 4.18 12.539 8.359 20.898 10.449h2.090c2.090 0 4.18 2.090 8.359 2.090h2.090c8.359 0 14.629 0 22.988 0h2.090c2.090 0 4.18-2.090 8.359-2.090h2.090c6.269-2.090 14.629-6.269 20.898-10.449l428.408-290.482c29.257-18.808 41.796-54.335 31.347-87.771s-39.706-54.335-75.233-54.335h-12.539v-445.127c-2.090-48.065-33.437-81.502-75.233-81.502zM432.588 368.588h158.824c41.796 0 73.143-33.437 73.143-79.412v-238.237h173.453v524.539h79.412l-411.69 280.033-411.69-280.033h68.963v-524.539h185.992v234.057c2.090 45.976 37.616 83.592 83.592 83.592zM848.457 50.939c0 0 0 0 0 0v0zM359.445 50.939c0 0 0 0 0 0v0zM934.139 575.478v0z" />
<glyph unicode="&#xe903;" glyph-name="my-devices" d="M737.28 943.616h-450.56c-69.632 0-124.928-55.296-124.928-124.928v-741.376c0-69.632 55.296-124.928 124.928-124.928h450.56c67.584 0 124.928 55.296 124.928 124.928v741.376c0 69.632-55.296 124.928-124.928 124.928zM284.672 861.696h450.56c22.528 0 43.008-20.48 43.008-43.008v-493.568h-536.576v493.568c0 24.576 18.432 43.008 43.008 43.008zM735.232 34.304h-450.56c-22.528 0-43.008 20.48-43.008 43.008v165.888h536.576v-165.888c0-24.576-18.432-43.008-43.008-43.008zM462.848 181.76h100.352v-81.92h-100.352v81.92z" />
<glyph unicode="&#xe904;" glyph-name="my-profile" d="M526.662 917.333c-67.925 0-135.957-25.771-187.797-77.397-103.829-103.381-103.829-270.848 0-374.229 10.987-10.837 22.635-20.608 34.816-29.077 45.717-32.32 99.392-48.427 152.981-48.427 50.453 0 101.013 14.272 144.896 42.731 15.211 9.877 29.653 21.461 43.029 34.773 103.808 103.381 103.808 270.848 0 374.229-51.861 51.627-119.893 77.397-187.925 77.397zM526.662 832c48.341 0 93.675-18.667 127.701-52.544 34.027-33.856 52.757-78.827 52.757-126.635s-18.731-92.779-52.757-126.635c-8.917-8.896-18.795-16.875-29.227-23.659-29.248-18.965-63.296-28.992-98.475-28.992-37.547 0-73.408 11.328-104.235 33.109-8.043 5.611-16 12.267-23.36 19.541-34.005 33.856-52.736 78.827-52.736 126.635s18.731 92.779 52.736 126.635c34.027 33.877 79.339 52.544 127.595 52.544zM311.578 417.406c-183.168-68.928-311.573-229.397-311.573-416.405 0-7.509 0.107-14.933 0.64-22.336h1022.827c0.427 7.403 0.533 14.827 0.533 22.336 0 180.011-119.147 335.573-291.52 408.363-57.579-48.427-129.707-74.837-205.824-74.837-80.213 0-156.117 29.419-215.083 82.88zM298.991 319.017c66.795-45.333 145.835-69.824 227.669-69.824 76.181 0 150.549 21.483 214.464 61.269 100.693-55.573 170.283-145.856 191.061-246.464h-840.533c21.632 106.688 97.387 200.405 207.339 255.019z" />
<glyph unicode="&#xe905;" glyph-name="repair" d="M697.875 960c-54.101 0-103.872-19.392-137.877-58.773-22.443-25.963-33.749-55.744-35.541-87.253-2.944-35.861 8.64-77.973 32.768-119.659l-495.275-573.141c-34.219-39.595-21.696-106.965 28.011-150.421 26.347-23.061 57.877-34.752 86.763-34.752 25.6 0 49.131 9.195 65.216 27.797l495.275 573.163c31.253-12.864 61.909-19.477 89.515-19.477 11.115 0 21.739 1.067 31.701 3.243 31.211 5.995 59.392 21.461 82.112 47.765 50.155 58.005 52.779 144.171 14.869 222.101l-99.584-115.157-124.928 37.035-53.845 119.275 99.563 115.2c-26.411 8.683-53.077 13.056-78.741 13.056zM653.886 675.669l15.317-33.92 36.459-10.795-526.677-609.472c-0.533-0.085-1.301-0.149-2.261-0.149-7.253 0-19.093 3.584-30.592 13.653-14.891 13.013-18.389 27.072-18.155 32.085l525.909 608.597z" />
<glyph unicode="&#xe906;" glyph-name="tips-and-tricks" d="M512 960c-211.2 0-394.667-170.667-394.667-381.867 0-138.667 68.267-260.267 174.933-328.533v-119.467c0-108.8 93.867-196.267 202.667-196.267s202.667 87.467 202.667 196.267v119.467c106.667 66.133 192 187.733 192 328.533 0 211.2-168.533 381.867-377.6 381.867zM612.267 142.933h-234.667v70.4h234.667v-70.4zM494.933 21.333c-32 0-64 14.933-85.333 36.267h170.667c-21.333-21.333-53.333-36.267-85.333-36.267zM654.933 322.133l-42.667-23.467h-68.267v93.867c76.8 19.2 136.533 89.6 136.533 174.933h-85.333c0-51.2-42.667-93.867-93.867-93.867s-93.867 42.667-93.867 93.867h-85.333c0-83.2 59.733-153.6 136.533-172.8v-96h-81.067l-36.267 25.6c-87.467 53.333-136.533 149.333-136.533 256 0 157.867 140.8 294.4 307.2 294.4 162.133 0 294.4-132.267 294.4-296.533 0-119.467-78.933-209.067-151.467-256z" />
<glyph unicode="&#xe907;" glyph-name="troubleshoot" d="M512 960c-282.773 0-512-229.227-512-512s229.227-512 512-512c282.773 0 512 229.227 512 512s-229.227 512-512 512zM512 874.667c235.264 0 426.667-191.403 426.667-426.667s-191.403-426.667-426.667-426.667c-235.264 0-426.667 191.403-426.667 426.667s191.403 426.667 426.667 426.667zM512 789.335c-188.203 0-341.333-153.131-341.333-341.333s153.131-341.333 341.333-341.333c188.203 0 341.333 153.131 341.333 341.333s-153.131 341.333-341.333 341.333zM512 704.002c141.163 0 256-114.837 256-256s-114.837-256-256-256c-141.163 0-256 114.837-256 256s114.837 256 256 256zM512 618.669c-94.101 0-170.667-76.565-170.667-170.667s76.565-170.667 170.667-170.667c94.101 0 170.667 76.565 170.667 170.667s-76.565 170.667-170.667 170.667zM512 533.335c47.061 0 85.333-38.272 85.333-85.333s-38.272-85.333-85.333-85.333c-47.061 0-85.333 38.272-85.333 85.333s38.272 85.333 85.333 85.333z" />
<glyph unicode="&#xe908;" glyph-name="icon-diagnostics" horiz-adv-x="998" d="M294.072 560.903c7.877 10.503 21.005 18.379 36.759 15.754 13.128 0 26.256-10.503 31.508-23.631l28.882-60.39 65.641 165.415c7.877 15.754 23.631 26.256 42.010 23.631s31.508-15.754 34.133-34.133l39.385-280.944 49.887 70.892c7.877 10.503 18.379 15.754 31.508 15.754h160.164v427.979c0 44.636-34.133 78.769-78.769 78.769h-472.615c-44.636 0-78.769-34.133-78.769-78.769v-427.979h36.759l73.518 107.651zM926.851 374.482h-254.687l-94.523-133.908c-7.877-10.503-18.379-15.754-31.508-15.754-2.626 0-5.251 0-7.877 0-15.754 2.626-26.256 15.754-28.882 31.508l-36.759 233.682-44.636-110.277c-5.251-13.128-18.379-23.631-34.133-23.631s-28.882 7.877-36.759 23.631l-36.759 81.395-44.636-68.267c-7.877-10.503-18.379-18.379-31.508-18.379h-191.672c-21.005 0-39.385-18.379-39.385-39.385s18.379-39.385 39.385-39.385h131.282v-280.944c0-44.636 34.133-78.769 78.769-78.769h472.615c44.636 0 78.769 34.133 78.769 78.769v280.944h112.903c21.005 0 39.385 18.379 39.385 39.385s-18.379 39.385-39.385 39.385z" />
<glyph unicode="&#xe909;" glyph-name="sound" horiz-adv-x="1139" d="M768.028 688.332c-21.634 14.153-44.808 15.377-61.86-7.436-16.714-22.363-6.523-41.105 12.884-56.482 9.995-7.92 20.903-14.727 30.772-22.785 76.184-62.218 100.721-163.033 52.357-244.476-20.404-34.36-55.217-60.774-84.928-89.343-17.888-17.194-28.677-35.052-12.673-57.111 15.365-21.189 36.437-22.426 58.423-8.39 91.584 58.452 142.795 139.633 144.855 244.041-4.702 107.553-53.65 185.596-139.829 241.982zM1115.028 519.646c-27.813 152.984-113.753 264.221-252.52 336.915-21.199 11.113-43.381 5.764-50.431-14.063-5.201-14.644 1.364-36.904 10.030-51.582 6.684-11.327 24.783-16.123 37.779-23.863 135.675-80.711 207.459-252.161 170.411-403.349-27.988-114.18-95.351-197.621-198.863-254.248-24.453-13.379-39.283-32.778-22.914-59.156 14.985-24.139 39.051-21.956 61.902-9.392 161.773 88.921 243.854 225.658 252.71 408.898-2.467 21.914-3.796 46.136-8.104 69.841zM567.063 449.121v-414.282c0-8.058 0.401-16.137-0.127-24.16-1.596-24.229-1.258-55.031-30.111-58.935-18.352-2.481-44.913 10.898-58.662 25.487-73.148 77.574-143.864 157.4-214.333 237.365-15.892 18.030-32.367 26.676-57.115 25.757-46.755-1.728-93.629 0.242-140.426-0.67-33.857-0.657-50.909 16.075-51.169 47.415-0.879 105.867-0.97 211.747-0.028 317.606 0.309 35.231 16.173 48.687 53.327 49.157 47.978 0.615 96.075-1.583 143.906 1.154 16.307 0.933 36.331 9.178 47.177 20.822 71.904 77.18 141.649 156.302 212.443 234.483 9.229 10.193 19.294 20.484 30.954 27.56 26.491 16.075 51.324 6.33 59.646-23.255 3.669-13.034 4.309-27.208 4.337-40.864 0.295-141.547 0.183-283.094 0.183-424.641z" />
<glyph unicode="&#xe90a;" glyph-name="disclosure-indicator-left" horiz-adv-x="658" d="M621.714 82.286l-109.714-109.714-475.429 475.429 475.429 475.429 109.714-109.714-365.714-365.714z" />
<glyph unicode="&#xe90b;" glyph-name="disclosure-indicator-right" horiz-adv-x="658" d="M36.571 813.714l109.714 109.714 475.429-475.429-475.429-475.429-109.714 109.714 365.714 365.714z" />
<glyph unicode="&#xe90c;" glyph-name="hand-tap" horiz-adv-x="705" d="M256.883 499.328h-1.736c0-63.331 0.109-126.663-0.058-189.994-0.058-22.612-12.225-39.386-32.942-46.653-21.333-7.477-45.042-2.254-58.496 14.393-9.957 12.322-18.814 25.592-27.271 38.988-9.074 14.37-16.419 29.826-25.791 43.99-9.488 14.332-26.36 19.043-42.287 13.644-17.012-5.77-18.562-9.396-10.151-25.065 62.554-116.503 125.236-232.941 187.542-349.574 3.977-7.447 8.969-8.689 16.426-8.662 77.639 0.283 155.278 0.344 232.917 0.416 34.422 0.031 68.848-0.378 103.263 0.038 21.194 0.256 32.384 8.471 39.031 28.435 3.182 9.556 5.519 19.666 6.275 29.673 3.050 40.188 6.713 80.411 7.57 120.672 1.194 56.121-0.136 112.292 0.109 168.437 0.066 14.917-14.512 25.585-30.585 25.837-15.822 0.245-25.783-11.23-26.182-28.076-0.248-10.5-0.151-21.126-1.779-31.454-1.713-10.84-9.88-17.045-20.484-18.6-10.709-1.57-20.015 2.732-25.077 12.181-2.876 5.365-3.988 12.158-4.124 18.344-0.508 22.99-0.264 45.996-0.337 68.994-0.027 9.667-3.046 17.786-12.341 22.551-22.713 11.646-44.232-0.688-45.046-25.948-0.399-12.429 0.132-24.908-0.74-37.3-1.167-16.59-17.093-26.402-33.011-21.030-11.314 3.817-16.88 11.994-17 26.486-0.24 29.406-0.209 58.815-0.112 88.224 0.035 11.531-4.221 20.056-14.775 25.994-19.988 11.241-53.542 1.735-50.395-29.891 1.806-18.184 0.36-36.906-1.655-55.166-1.492-13.526-12.709-20.377-26.446-19.292-14.372 1.135-23.124 11.818-23.26 29.707-0.264 33.933-0.070 67.867-0.066 101.8 0.012 66.361-0.128 132.723 0.163 199.080 0.058 13.075-4.267 22.929-16.605 28.24-20.050 8.635-45.349-4.184-44.938-27.182 1.14-64.061 0.395-128.157 0.395-192.241zM485.436 458.17c21.008 7.374 42.263 5.854 63.011-2.912 20.775-8.777 34.899-23.842 42.383-44.246 18.306 0 36.554 2.889 53.449-0.6 34.977-7.225 57.973-36.635 58.236-71.829 0.492-65.563 1.31-131.168-0.519-196.688-1.12-40.177-5.399-80.434-10.984-120.282-7.167-51.116-43.589-82.027-95.914-82.294-114.732-0.581-229.475-0.229-344.211-0.084-21.798 0.027-37.961 9.919-48.151 29.043-64.682 121.363-129.375 242.715-194.038 364.089-15.965 29.967-9.853 55.518 17.5 76.112 40.050 30.158 106.507 23.434 136.003-33.67 9.853-19.078 21.806-37.101 32.953-55.521 1.667-2.759 4.159-5.036 8.116-9.72 0.578 6.683 1.209 10.645 1.217 14.603 0.151 105.185 0.116 210.371 0.438 315.552 0.070 22.948 0.035 46.030 2.43 68.807 3.686 35.072 38.845 64.493 81.368 63.664 38.682-0.757 68.29-22.914 77.337-56.064 2.446-8.964 3.295-18.585 3.349-27.912 0.318-52.407 0.171-104.815 0.182-157.222v-15.318c53.814 10.378 94.298-3.863 115.844-57.508zM163.618 458.438c-85.151 40.849-147.375 133.781-145.495 235.826 2.457 133.491 99.154 233.781 215.7 256.672 114.585 22.505 230.84-28.443 288.901-133.349 56.763-102.56 36.178-218.67-31.077-294.625-9.779 6.801-19.597 13.625-27.992 19.464 12.364 21.703 26.36 42.068 36.178 64.233 44.302 100.031 1.698 224.734-94.294 279.208-106.992 60.718-232.785 35.531-305.987-62.529-31.55-42.263-45.566-90.418-42.364-143.345 4.461-73.713 37.821-131.305 98.182-174.164 5.81-4.127 8.849-8.448 8.403-15.792-0.616-10.099-0.155-20.262-0.155-31.599zM163.646 568.84c-65.097 60.122-75 172.968-0.624 245.924 72.011 70.641 190.906 65.654 257.285-10.301 66.814-76.448 47.632-185.577-10.814-235.142 2.86 27.499-2.167 53.321 7.322 79.876 18.686 52.297 6.322 100.39-33.682 139.019-39.232 37.888-87.275 48.915-139.724 31.778-53.523-17.481-84.081-55.827-93.251-110.145-3.461-20.526-2.298-41.705 6.422-61.104 6.453-14.363 7.376-28.943 7.105-44.059-0.202-11.272-0.039-22.551-0.039-35.848z" />
<glyph unicode="&#xe90d;" glyph-name="icon-audiojack-grey" d="M512-64c282.77 0 512 229.23 512 512s-229.23 512-512 512c-282.77 0-512-229.23-512-512s229.23-512 512-512v0zM512 64c-212.077 0-384 171.923-384 384s171.923 384 384 384c212.077 0 384-171.923 384-384s-171.923-384-384-384zM512 158.118c160.098 0 289.882 129.785 289.882 289.882s-129.785 289.882-289.882 289.882c-160.098 0-289.882-129.785-289.882-289.882s129.785-289.882 289.882-289.882z" />
<glyph unicode="&#xe90e;" glyph-name="icon_volume_grey" d="M682.667 490.667v85.333h85.333v-85.333h85.333v-85.333h-85.333v-85.333h-85.333v85.333h-85.333v85.333h85.333zM0 448c0 140.8 115.2 256 256 256h512c140.8 0 256-115.2 256-256s-115.2-256-256-256h-512c-140.8 0-256 115.2-256 256zM85.333 448c0-93.867 76.8-170.667 170.667-170.667h512c93.867 0 170.667 76.8 170.667 170.667s-76.8 170.667-170.667 170.667h-512c-93.867 0-170.667-76.8-170.667-170.667zM392.533 490.667h-221.867v-85.333h256v85.333h-34.133z" />
<glyph unicode="&#xe90f;" glyph-name="icon_proximity_grey" d="M271.36 386.56c-15.36-20.48-15.36-40.96 5.12-61.44 20.48-15.36 40.96-5.12 56.32 15.36 10.24 10.24 15.36 20.48 25.6 30.72 61.44 76.8 163.84 102.4 250.88 51.2 35.84-20.48 61.44-56.32 92.16-87.040 15.36-20.48 35.84-30.72 56.32-15.36s20.48 35.84 10.24 61.44c-61.44 92.16-143.36 148.48-250.88 148.48-112.64 0-189.44-51.2-245.76-143.36zM440.32 744.96c-153.6-30.72-271.36-117.76-343.040-261.12-10.24-20.48-5.12-46.080 15.36-51.2 15.36-5.12 35.84 0 51.2 10.24 10.24 5.12 15.36 25.6 25.6 40.96 81.92 138.24 256 215.040 409.6 174.080 117.76-30.72 199.68-97.28 261.12-204.8 15.36-25.6 35.84-40.96 61.44-25.6s20.48 40.96 10.24 61.44c-92.16 168.96-230.4 256-419.84 261.12-20.48 0-46.080 0-71.68-5.12zM76.8 89.6h870.4c30.72 0 51.2 20.48 51.2 51.2s-20.48 51.2-51.2 51.2h-870.4c-30.72 0-51.2-20.48-51.2-51.2s20.48-51.2 51.2-51.2v0z" />
<glyph unicode="&#xe910;" glyph-name="icon_software_update" horiz-adv-x="655" d="M207.881 124.703c-59.055 58.182-95.66 139.078-95.66 228.526 0 177.164 143.615 320.779 320.779 320.779v-111.497l192.071 197.074-192.071 200.416v-103.546c-227.832 0-412.525-184.693-412.525-412.525 0-139.25 68.995-262.39 174.667-337.089l12.738 17.862zM522.168 523.221c41.307-40.699 66.92-97.292 66.92-159.86 0-123.935-100.469-224.404-224.404-224.404v77.998l-134.355-137.861 134.355-140.201v72.437c159.381 0 288.583 129.202 288.583 288.576 0 97.413-48.27 183.555-122.189 235.811l-8.91-12.495z" />
<glyph unicode="&#xe911;" glyph-name="icon-storage-small-2" d="M819.2 960h-614.4l-204.8-218.453v-805.547h1024v805.547l-204.8 218.453zM887.467 72.533h-750.933v477.867h750.933v-477.867zM750.933 338.773c0-34.133-27.307-61.44-61.44-61.44h-354.987c-34.133 0-61.44 27.307-61.44 61.44v13.653c0 34.133 27.307 61.44 61.44 61.44h348.16c40.96 0 68.267-27.307 68.267-61.44v-13.653z" />
<glyph unicode="&#xe912;" glyph-name="icon-diagnostics2" d="M512-64c283.2 0 512 228.8 512 512s-228.8 512-512 512-512-228.8-512-512 228.8-512 512-512v0 0zM512-17.6c-257.6 0-465.6 208-465.6 465.6s208 465.6 465.6 465.6 465.6-208 465.6-465.6-208-465.6-465.6-465.6v0 0zM499.2 563.2l-4.8-6.4 17.6-16 17.6 16-4.8 6.4c-28.8 32-78.4 32-107.2 0-27.2-30.4-27.2-81.6 0-112l4.8-6.4 72-81.6c9.6-9.6 25.6-9.6 35.2 0l72 81.6 4.8 6.4c27.2 30.4 27.2 81.6 0 112-28.8 32-76.8 32-107.2 0v0 0zM512 414.4l-56 62.4-4.8 6.4c-12.8 12.8-12.8 36.8 0 51.2 11.2 12.8 27.2 12.8 38.4 0l4.8-6.4c9.6-9.6 25.6-9.6 35.2 0l4.8 6.4c11.2 12.8 27.2 12.8 38.4 0 12.8-12.8 12.8-36.8 0-51.2l-4.8-6.4-56-62.4zM326.4 680v-464c0-38.4 28.8-68.8 65.6-68.8h240c36.8 0 65.6 30.4 65.6 68.8v464c0 38.4-28.8 68.8-65.6 68.8h-240c-36.8 0-65.6-30.4-65.6-68.8v0 0 0zM372.8 680c0 12.8 9.6 22.4 20.8 22.4h235.2c11.2 0 20.8-11.2 20.8-22.4v-464c0-12.8-9.6-22.4-20.8-22.4h-235.2c-11.2 0-20.8 11.2-20.8 22.4v464zM632 633.6h19.2v46.4h-278.4v-46.4h259.2zM392 240h257.6v46.4h-276.8v-46.4h19.2z" />
<glyph unicode="&#xe913;" glyph-name="icon-battery-small" d="M958.4 355.2v-44.8c0-62.4-51.2-115.2-115.2-115.2h-718.4c-64 0-115.2 51.2-115.2 115.2v275.2c0 62.4 51.2 115.2 115.2 115.2h718.4c64 0 115.2-51.2 115.2-115.2v-44.8h16c20.8 0 40-17.6 40-40v-107.2c0-22.4-17.6-40-40-40h-16v1.6z" />
<glyph unicode="&#xe914;" glyph-name="icon_category_hiddenfeatures" d="M512 749.811c-218.274 0-409.6-118.568-512-291.032 102.4-175.158 293.726-291.032 512-291.032s409.6 118.568 512 291.032c-105.095 172.463-296.421 291.032-512 291.032zM619.789 526.147c-72.758 0-132.042-59.284-132.042-132.042 0-70.063 53.895-126.653 121.263-129.347-26.947-13.474-59.284-21.558-91.621-21.558-118.568 0-212.884 94.316-212.884 210.189s94.316 210.189 212.884 210.189c115.874 0 207.495-88.926 212.884-202.105-21.558 40.421-61.979 64.674-110.484 64.674z" />
<glyph unicode="&#xe915;" glyph-name="icon_category_accessories" horiz-adv-x="859" d="M801.204 305.173v403.42c0 105.923-87.441 192.11-194.921 192.11h-8.155c-107.481 0-194.921-86.187-194.921-192.11v-568.898c0-56.602-46.719-102.648-104.157-102.648-57.423 0-104.15 46.046-104.15 102.648v454.772h13.364c50.127 0 90.772 40.052 90.772 89.462v141.075h-57.877v106.667h-55.859v-106.667h-71.57v106.667h-55.859v-106.667h-57.87v-141.075c0-49.411 40.638-89.462 90.772-89.462h13.357v-454.772c0-105.93 87.448-192.11 194.928-192.11s194.921 86.18 194.921 192.11v568.898c0 56.595 46.719 102.648 104.15 102.648h8.155c57.43 0 104.15-46.052 104.15-102.648v-403.42c-32.252-2.629-57.605-29.213-57.605-61.674v-196.129h36.658v-103.226h132.666v103.226h36.658v196.129c0 32.461-25.353 59.045-57.605 61.674z" />
<glyph unicode="&#xe916;" glyph-name="icon_category_battery" horiz-adv-x="527" d="M342.958 880.078h101.802c32.481 0 58.524-26.159 58.524-58.428v-817.178c0-32.472-26.202-58.428-58.524-58.428h-380.381c-32.481 0-58.524 26.159-58.524 58.428v817.178c0 32.472 26.202 58.428 58.524 58.428h101.826c-2.102 4.81-3.267 10.123-3.267 15.708 0 21.84 17.602 39.271 39.315 39.271h104.634c21.743 0 39.315-17.582 39.315-39.271 0-5.599-1.157-10.908-3.243-15.708v0z" />
<glyph unicode="&#xe917;" glyph-name="icon_category_callingandreception" horiz-adv-x="768" d="M250.607 935.605c27.679-9.764 46.242-30.078 56.283-56.111 17.47-45.303 34.761-91.002 47.148-137.85 13.284-50.227-5.838-84.728-50.089-111.355-30.847-18.56-61.561-38.203-89.027-61.288-37.645-31.636-46.317-73.849-26.2-118.429 37.831-83.844 87.721-160.726 145.705-231.897 27.306-33.515 55.79-38.186 95.274-20.016 26.751 12.313 51.867 28.151 77.787 42.284 51.24 27.929 88.752 26.579 127.823-16.739 37.227-41.272 70.060-87.529 98.553-135.328 22.108-37.093 8.322-66.603-29.003-88.897-48.97-29.256-99.632-53.984-156.577-63.415h-53.315c-2.701 1.128-5.327 2.975-8.117 3.272-70.096 7.482-130.080 37.986-183.835 81.73-89.6 72.912-151.49 167.266-204.396 268.121s-95.269 205.292-98.433 321.301c-2.572 94.247 21.139 180.92 94.919 243.451 39.195 33.221 88.53 54.499 133.288 81.167h22.215z" />
<glyph unicode="&#xe918;" glyph-name="icon_category_camera" horiz-adv-x="1323" d="M1186.238 587.73c0 38.927-32.713 70.493-73.054 70.493s-73.054-31.566-73.054-70.493c0-38.927 32.713-70.493 73.054-70.493s73.054 31.566 73.054 70.493zM987.961 387.263c0 175.698-147.477 318.227-329.359 318.227s-329.298-142.529-329.298-318.227c0-175.831 147.416-318.286 329.298-318.286s329.359 142.455 329.359 318.286zM1317.336 641.839v-572.861c0-70.018-59.274-127.288-131.728-127.288h-1053.888c-72.439 0-131.713 57.27-131.713 127.288v572.861c0 70.018 59.274 127.288 131.713 127.288h158.059c21.686 0 45.109 16.265 52.030 36.196l40.849 118.487c6.844 19.931 30.268 36.196 52.015 36.196h447.923c21.747 0 45.094-16.265 52.015-36.196l40.849-118.487c6.844-19.931 30.268-36.196 52.015-36.196h158.074c72.439 0 131.79-57.27 131.79-127.288zM856.248 387.263c0-105.502-88.542-190.998-197.646-190.998s-197.585 85.497-197.585 190.998c0 105.368 88.419 190.939 197.585 190.939s197.646-85.571 197.646-190.939z" />
<glyph unicode="&#xe919;" glyph-name="icon_category_comparison" horiz-adv-x="1123" d="M275.434 845.065h-237.631c-20.879 0-37.801-17.061-37.801-38.111v-321.252c0-21.050 16.922-38.111 37.801-38.111h237.631c20.879 0 37.801-17.061 37.801-38.111v-12.17c0-31.836 36.44-49.646 61.225-29.905l324.057 257.962c19.178 15.257 19.178 44.565 0 59.822l-324.057 257.975c-24.785 19.729-61.225 1.931-61.225-29.917v-30.070c0-21.050-16.922-38.111-37.801-38.111zM1113.146 82.751v321.252c0 21.050-16.922 38.111-37.801 38.111h-237.631c-20.879 0-37.801 17.061-37.801 38.111v12.17c0 31.836-36.44 49.646-61.225 29.905l-324.069-257.962c-19.165-15.257-19.165-44.565 0-59.822l324.069-257.975c24.785-19.729 61.225-1.931 61.225 29.917v30.070c0 21.050 16.922 38.111 37.801 38.111h237.631c20.879 0 37.801 17.061 37.801 38.111z" />
<glyph unicode="&#xe91a;" glyph-name="icon_category_gettingstarted" horiz-adv-x="691" d="M372.479 50.743h69.093c19.598 22.363 37.531 47.38 53.495 74.659 59.244-30.565 108.372-78.009 141.033-135.962h42.053c-9.547 98.138-60.736 184.084-135.678 239.941 23.187 67.391 36.149 142.709 36.149 222.182 0 1.831-0.009 3.662-0.027 5.501h-486.664c-0.018-1.84-0.027-3.671-0.027-5.501 0-81.286 13.566-158.224 37.75-226.777-71.656-55.912-120.364-139.852-129.655-235.345h42.053c31.581 56.049 78.577 102.258 135.221 132.886 15.507-26.079 32.826-50.062 51.673-71.583h90.092v-114.743h53.44v114.743zM339.077 604.030c-47.957 0-86.843 38.876-86.843 86.843 0 47.957 38.886 86.843 86.843 86.843 47.966 0 86.843-38.886 86.843-86.843 0-47.966-38.876-86.843-86.843-86.843v0zM335.269 938.044c-120.62-63.702-211.564-209.468-236.517-387.455h473.025c-24.953 177.987-115.897 323.753-236.508 387.455v0z" />
<glyph unicode="&#xe91b;" glyph-name="icon_category_news" horiz-adv-x="807" d="M0 839.997v-796.492c0-51.768 41.788-93.39 93.337-93.39h620.114c51.659 0 93.337 41.812 93.337 93.39v796.492c0 51.768-41.788 93.39-93.337 93.39h-620.114c-51.659 0-93.337-41.812-93.337-93.39zM100.848 782.114h605.091v-100.848h-605.091v100.848zM100.848 378.72h605.091v-100.848h-605.091v100.848zM536.969 580.417v-100.848h-436.121v100.848h436.121zM536.969 177.023v-100.848h-436.121v100.848h436.121z" />
<glyph unicode="&#xe91c;" glyph-name="icon_category_security" horiz-adv-x="475" d="M237.933 27.856c-40.866 0-73.99 33.14-73.99 74.026s33.125 74.026 73.99 74.026c40.866 0 73.99-33.14 73.99-74.026s-33.125-74.026-73.99-74.026zM368.198 375.876c-12.059 8.834-17.4 17.24-16.432 32.256 1.265 19.81 1.619 39.889-0.242 59.587-0.949 10.054-5.443 21.56-12.059 28.923-19.577 21.783-41.006 41.844-61.857 62.715 20.163 21.681 37.795 40.643 60.62 65.192-20.842 17.799-39.628 33.839-60.657 51.786 21.196 20.033 39.731 37.553 62.211 58.806-21.066 19.996-40.354 38.298-61.783 58.638 10.468 9.57 19.679 17.92 28.807 26.382 9.612 8.899 19.121 17.911 27.207 25.488-33.478 35.812-63.941 69.269-95.4 101.711-16.395 16.924-23.448 16.747-41.201 0.084-22.452-21.076-43.546-43.669-65.961-64.791-9.854-9.281-13.603-19.149-13.557-32.917 0.456-143.183-0.261-286.385 0.847-429.559 0.167-22.184-5.815-35.375-23.643-48.631-91.772-68.198-120.765-191.73-70.948-294.391 50.171-103.377 168.060-157.147 276.134-122.778 93.102 29.612 151.628 94.99 165.688 193.797 13.427 94.441-21.401 171.734-97.773 227.7z" />
<glyph unicode="&#xe91d;" glyph-name="icon-category_lifehack" horiz-adv-x="956" d="M177.27 418.726c27.534 40.637 52.371 76.319 75.685 112.96 35.967 56.518 72.249 112.984 104.744 171.464 12.094 21.765 17.928 48.937 19.418 74.065 1.915 32.257-3.985 64.916-5.423 97.45-0.859 19.416-3.611 54.562 1.321 55.803 28.004 7.048 61.446 15.133 86.75 5.874 59.443-21.743 91.52-73.978 95.776-133.779 5.13-72.103-2.040-145.066-4.014-222.641 73.885 0 155.109 0.817 236.304-0.452 27.513-0.43 56.889-1 82.009-10.448 57.417-21.604 71.632-85.477 32.65-132.845-12.63-15.352-18.126-25.326-1.020-45.186 40.707-47.258 29.142-95.918-29.222-142.169 5.291-13.724 13.092-27.558 15.844-42.326 6.796-36.496-14.589-79.574-52.038-95.123-21.385-8.88-24.1-16.307-18.625-36.985 14.765-55.781-29.479-110.496-87.66-110.613-147.8-0.306-295.615 0.832-443.385-1.138-35.877-0.476-56.278 32.981-81.583 52.177v-5.688h-204.8v409.6h177.27z" />
<glyph unicode="&#xe91e;" glyph-name="icon-category-HotApps" horiz-adv-x="580" d="M467.624 543.341c-178.999 257.612-9.798 416.658-9.798 416.658-308.955-127.355-293.377-317.493-293.377-317.493-49.33 58.505-137.605 39.003-137.605 39.003s129.816-85.318 49.33-198.652c-82.546-116.239-81.529-234.113-71.466-300.381 2.161-16.869 5.807-33.288 10.92-49.080 1.016-3.25 1.647-4.98 1.647-4.98l0.082 0.008c38.111-110.342 145.121-189.853 271.269-189.853 146.009 0 266.397 106.496 283.941 244.065l2.286 0.22c25.913 141.691-107.229 360.486-107.229 360.486z" />
<glyph unicode="&#xe91f;" glyph-name="icon-category-TipsWhenTravelling" horiz-adv-x="1088" d="M64 224h-64v448h64l128-128h192l-128 416h96l352-416h288c0 0 96 0 96-96s-96-96-96-96h-288l-352-416h-96l128 416h-192l-128-128z" />
<glyph unicode="&#xe920;" glyph-name="arrowback" d="M1024 512h-780.8l358.4 358.4-89.6 89.6-512-512 512-512 89.6 89.6-358.4 358.4h780.8z" />
<glyph unicode="&#xe921;" glyph-name="icon_play" d="M133.908-64v1024l756.185-512-756.185-512zM133.908-64v1024l756.185-512-756.185-512z" />
<glyph unicode="&#xe922;" glyph-name="go-hand" horiz-adv-x="960" d="M815.795 353.35v0.28c-9.873 0-20.269 0-31.428-0.005-8.235 0-18.477 2.798-24.287-1.023-10.956-7.213-24.826-16.948-27.575-28.080-4.304-17.465 9.615-28.218 27.184-30.78 8.087-1.182 16.454-0.55 24.689-0.555 11.391 0 21.797 0 31.417-0.005 5.096 0 10.148 0.154 15.008-0.99 23.815-6.591 41.373-28.399 41.373-54.286 0-26.53-18.438-48.778-43.154-54.748-4.948-0.687-4.948-0.687-13.227-0.033-17.339 0.044-38.646 0.126-74.132 0.231-20.346 0.060-38.19-3.155-37.948-28.223 0.236-23.946 17.361-29.603 37.745-29.603 49.888 0 56.678 0.17 74.335 0.104 4.475 0 9.466-0.803 13.227-2.353 24.716-5.976 43.154-28.223 43.154-54.754 0-31.088-25.293-53.011-56.381-53.011-34.661-0.132-47.327 0.033-114.273 0.033-96.165 0.005-192.407-2.314-288.485 0.632-104.142 3.188-197.828 34.144-265.583 119.908-36.975 46.804-56.518 101.926-57.97 159.847-1.583 63.434 2.122 127.945 12.435 190.522 16.003 97.149 81.416 162.821 161.397 211.522 108.364 65.985 219.834 126.912 330.688 188.73 30.461 16.987 62.516 8.664 78.354-15.47 16.014-24.386 11.374-55.908-15.931-78.431-40.856-33.699-84.648-63.863-125.241-97.864-11.566-9.692-23.738-28.086-22.622-41.401 1.902-22.677 25.018-22.253 43.671-22.253 111.189-0.016 183.821-0.088 263.56-0.060 31.088 0 56.381-21.797 56.381-52.885 0-30.994-25.134-56.914-56.089-57.068h-0.291c-10.78-0.005-22.902-0.016-36.887-0.022-8.208-0.005-18.444 2.21-24.161-1.759-9.461-6.569-22-17.262-22.116-26.354-0.115-9.335 11.775-20.599 21.005-27.602 5.404-4.096 15.871-1.891 24.062-1.897 13.688-0.005 26.299-0.011 38.097-0.016 0.099 0 0.192-0.715 0.291-0.715 30.956-0.159 56.089-25.37 56.089-56.364 0-25.882-17.559-47.695-41.373-54.286-4.926 0.643-9.912 1.088-15.008 1.088zM931.24 406.548c0 34.128-14.969 64.748-38.586 85.896 23.617 21.154 38.586 51.774 38.586 85.902 0 63.654-51.791 113.471-115.444 113.471-41.016-0.033-84.742-0.093-149.237-0.093h-29.84c-0.819 2.27-1.638 4.541-2.452 6.811 19.983 15.371 40.472 30.142 59.855 46.233 48.382 40.164 59.822 110.59 26.794 160.836-30.576 46.524-97.556 64.484-150.952 35.007-117.539-64.896-235.215-129.853-349.582-200.093-93.493-57.42-160.479-139.039-179.098-250.839-8.955-53.781-14.398-109.013-13.342-163.431 4.541-234.726 162.491-359.296 368.394-367.328 139.655-5.453 279.59-3.848 419.459-3.634v0.016c63.654 0 115.444 49.57 115.444 113.223 0 33.484-14.414 63.582-37.256 84.692 22.842 21.104 37.256 51.208 37.256 84.687 0 33.286-14.244 63.236-36.854 84.324 22.611 21.088 36.854 51.037 36.854 84.318z" />
<glyph unicode="&#xe923;" glyph-name="stop-hand" horiz-adv-x="794" d="M745.139 468.385c0 75.182 0.27 150.367-0.262 225.545-0.092 12.752-2.699 25.708-5.778 38.174-4.757 19.252-19.884 25.917-37.945 25.847-18.262-0.074-32.847-7.55-37.020-26.88-3.013-13.959-5.795-28.295-5.939-42.492-0.641-62.885-0.292-125.783-0.288-188.672 0-16.089-4.491-29.609-23.485-29.791-19.879-0.191-22.43 13.893-22.386 29.952 0.231 78.071 0.323 156.147-0.004 234.218-0.126 30.308-0.122 60.728-2.669 90.889-2.712 32.143-17.695 45.26-44.943 43.78-26.372-1.432-39.453-17.512-39.471-48.905-0.048-95.423-0.013-190.846-0.031-286.269 0-6.504 0.497-13.104-0.436-19.486-2.032-13.872-10.561-24.854-24.418-21.456-8.83 2.169-16.552 13.117-22.269 21.764-3.031 4.586-0.815 12.665-0.815 19.17-0.017 110.605 0.109 221.21-0.092 331.811-0.061 31.957-21.262 50.836-51.274 46.687-22.147-3.063-35.764-22.35-35.799-51.951-0.135-110.605-0.039-221.21-0.1-331.811-0.004-6.465 1.749-14.731-1.504-18.992-5.555-7.285-14.485-16.67-21.894-16.579-7.212 0.091-15.693 9.988-20.904 17.456-3.148 4.508-1.387 12.592-1.391 19.070-0.061 85.3 0.026 170.604-0.14 255.905-0.017 9.329-0.384 18.866-2.32 27.939-5.533 25.917-32.224 39.667-56.895 30.316-22.775-8.635-28.112-26.333-28.068-48.484 0.31-148.198 0.166-296.392 0.144-444.59-0.004-14.722 0.336-32.963-17.655-34.465-10.557-0.881-25.151 8.726-32.838 17.855-26.969 32.035-50.895 66.599-77.625 98.851-17.865 21.552-42.863 25.209-62.206 12.574-19.142-12.501-25.744-37.806-12.275-61.848 49.033-87.491 97.36-175.477 149.698-261.007 38.629-63.124 90.719-114.753 167.777-127.388 49.635-8.136 100.805-11.064 151.12-9.81 45.942 1.141 89.668 16.571 126.789 45.755 68.032 53.478 92.581 127.419 95.114 209.616 2.333 75.837 0.497 151.795 0.497 227.701zM208.805 417.237v23.548c0.004 117.144-0.262 234.288 0.109 351.427 0.209 66.404 39.070 105.19 99.954 100.296 11.355-0.916 22.478-4.699 35.324-7.511 10.090 43.937 37.404 70.925 83.324 74.639 42.309 3.423 71.873-17.512 90.444-54.181 89.254 27.869 127.517-0.529 142.246-106.843 9.593 1.749 19.059 4.265 28.674 5.098 61.077 5.307 99.64-28.902 101.943-90.693 1.265-33.9 2.254-67.844 2.145-101.762-0.41-127.931 2.102-255.987-2.908-383.748-6.375-162.517-105.183-287.184-291.36-290.768-43.164-0.833-86.978 3.463-129.632 10.531-88.683 14.696-153.422 67.567-198.967 141.36-55.713 90.268-107.232 183.148-158.707 275.92-23.385 42.14-9.135 95.006 27.767 119.144 39.854 26.064 95.716 17.035 127.569-21.148 12.767-15.304 24.48-31.471 36.671-47.247 1.801 0.647 3.602 1.293 5.403 1.94z" />
<glyph unicode="&#xe924;" glyph-name="failure" d="M880.64 937.244l-880.64-880.64 95.573-95.573 880.64 880.64zM976.213 56.604l-880.64 880.64-95.573-95.573 880.64-880.64z" />
<glyph unicode="&#xe925;" glyph-name="success" d="M947.2 847.36l-645.12-640-225.28 220.16-76.8-76.8 302.080-302.080 81.92 76.8 640 645.12z" />
<glyph unicode="&#xe926;" glyph-name="backup" d="M901.12 518.217c-11.703 187.246-166.766 330.606-354.011 330.606-134.583 0-257.463-76.069-315.977-196.023-128.731-11.703-231.131-122.88-231.131-257.463 0-143.36 108.251-260.389 245.76-260.389l605.623 2.926c96.549 14.629 169.691 96.549 169.691 198.949 2.926 81.92-46.811 152.137-119.954 181.394zM845.531 199.314l-599.771-2.926c-105.326 0-187.246 87.771-187.246 198.949 0 108.251 84.846 196.023 190.171 198.949h17.554l8.777 17.554c46.811 105.326 152.137 175.543 269.166 175.543 160.914 0 292.571-128.731 295.497-292.571v-23.406l20.48-5.851c58.514-17.554 99.474-70.217 99.474-131.657 2.926-67.291-46.811-125.806-114.103-134.583zM646.719 329.27c-8.777 0-17.554 2.926-23.406 8.777l-102.4 105.326-105.326-105.326c-11.703-11.703-32.183-11.703-43.886 0s-11.703 32.183 0 43.886l125.806 125.806c11.703 11.703 32.183 11.703 43.886 0l125.806-125.806c11.703-11.703 11.703-32.183 0-43.886-5.851-5.851-14.629-8.777-20.48-8.777zM520.913 27.922c-17.554 0-29.257 14.629-29.257 29.257v427.154c0 17.554 14.629 29.257 29.257 29.257 17.554 0 29.257-14.629 29.257-29.257v-424.229c0-17.554-14.629-32.183-29.257-32.183z" />
<glyph unicode="&#xe927;" glyph-name="icon-phonehealth" d="M492.308 640.985l-7.877-7.877 27.569-27.569 27.569 27.569-7.877 7.877c-51.2 55.138-133.908 55.138-181.169 0-47.262-51.2-47.262-137.846 0-189.046l7.877-7.877 122.092-137.846c15.754-15.754 43.323-15.754 59.077 0l122.092 137.846 7.877 7.877c47.262 51.2 47.262 137.846 0 189.046-47.262 59.077-129.969 59.077-177.231 0v0zM512 388.923l-94.523 106.338-7.877 7.877c-19.692 23.631-19.692 63.015 0 86.646 19.692 19.692 47.262 19.692 63.015 0l7.877-7.877c15.754-15.754 43.323-15.754 59.077 0l11.815 7.877c19.692 19.692 47.262 19.692 63.015 0 19.692-23.631 19.692-63.015 0-86.646l-7.877-7.877-94.523-106.338zM196.923 841.846v-787.692c0-66.954 51.2-118.154 110.277-118.154h409.6c63.015 0 110.277 51.2 110.277 118.154v787.692c0 66.954-51.2 118.154-110.277 118.154h-409.6c-59.077 0-110.277-51.2-110.277-118.154v0 0zM275.692 841.846c0 23.631 15.754 39.385 35.446 39.385h401.723c19.692 0 35.446-15.754 35.446-39.385v-787.692c0-23.631-15.754-39.385-35.446-39.385h-401.723c-19.692 0-35.446 15.754-35.446 39.385v787.692zM712.862 763.077h35.446v78.769h-472.615v-78.769h437.169zM311.138 93.538h437.169v78.769h-472.615v-78.769h35.446z" />
<glyph unicode="&#xe928;" glyph-name="icon-usagetips" d="M330.831 893.046c-3.938 7.877 0 19.692 7.877 23.631 11.815 3.938 23.631 11.815 35.446 15.754s19.692 0 23.631-11.815c3.938-11.815 0-19.692-11.815-23.631-7.877-3.938-19.692-7.877-31.508-15.754 0 0-3.938 0-7.877 0s-11.815 3.938-15.754 11.815zM456.862 912.738c0 0 3.938 0 0 0 15.754 0 27.569 3.938 39.385 3.938s19.692 7.877 19.692 19.692c0 11.815-11.815 19.692-19.692 19.692-11.815 0-27.569 0-39.385-3.938-11.815 0-19.692-11.815-15.754-23.631 0-7.877 7.877-15.754 15.754-15.754zM252.062 818.215c3.938 0 7.877 0 11.815 3.938 11.815 7.877 19.692 15.754 31.508 23.631 7.877 7.877 11.815 19.692 3.938 27.569s-19.692 7.877-27.569 3.938c-11.815-7.877-23.631-15.754-31.508-27.569-7.877-7.877-7.877-19.692 0-27.569 3.938-3.938 7.877-3.938 11.815-3.938zM771.938 810.338c7.877-7.877 11.815-11.815 19.692-19.692 3.938-3.938 7.877-7.877 15.754-7.877 3.938 0 7.877 0 11.815 3.938 7.877 7.877 7.877 19.692 0 27.569s-11.815 15.754-19.692 19.692l-11.815 11.815c-7.877 7.877-19.692 7.877-27.569 0s-7.877-19.692 0-27.569l11.815-7.877zM571.077 912.738c11.815 0 23.631-3.938 35.446-7.877 0 0 3.938 0 3.938 0 7.877 0 15.754 3.938 19.692 15.754s-3.938 19.692-11.815 23.631c-11.815 3.938-27.569 7.877-39.385 7.877s-19.692-3.938-23.631-15.754c-3.938-11.815 3.938-19.692 15.754-23.631zM173.292 731.569c3.938 0 7.877-3.938 7.877-3.938 7.877 0 11.815 3.938 15.754 7.877 7.877 11.815 11.815 19.692 19.692 31.508 7.877 7.877 3.938 19.692-3.938 27.569s-19.692 3.938-27.569-3.938c-7.877-11.815-15.754-23.631-19.692-35.446-7.877-7.877-3.938-19.692 7.877-23.631zM673.477 881.231c11.815-3.938 19.692-11.815 31.508-15.754 3.938 0 7.877-3.938 11.815-3.938 7.877 0 11.815 3.938 15.754 7.877 3.938 7.877 3.938 19.692-7.877 27.569s-23.631 11.815-35.446 19.692c-7.877 3.938-19.692 0-27.569-7.877 0-11.815 3.938-23.631 11.815-27.569zM870.4 633.108c3.938-11.815 3.938-23.631 7.877-35.446 0-7.877 7.877-15.754 19.692-15.754 0 0 0 0 3.938 0 11.815 0 19.692 11.815 15.754 19.692 0 11.815-3.938 27.569-7.877 39.385s-11.815 15.754-23.631 15.754c-11.815-3.938-19.692-15.754-15.754-23.631zM862.523 688.246c3.938 0 3.938 0 7.877 0 7.877 3.938 15.754 15.754 11.815 23.631-3.938 11.815-11.815 23.631-19.692 35.446-3.938 15.754-15.754 15.754-23.631 11.815s-11.815-15.754-7.877-27.569c7.877-11.815 11.815-19.692 15.754-31.508 3.938-7.877 11.815-11.815 15.754-11.815zM795.569 321.969c-7.877-7.877-15.754-19.692-23.631-27.569s-7.877-19.692 0-27.569c3.938-3.938 7.877-3.938 11.815-3.938s7.877 0 11.815 3.938c7.877 7.877 19.692 19.692 27.569 31.508 7.877 7.877 3.938 19.692-3.938 27.569-3.938 7.877-15.754 3.938-23.631-3.938zM874.338 428.308c-7.877 3.938-19.692 0-23.631-11.815s-7.877-23.631-15.754-31.508c-3.938-7.877 0-19.692 7.877-27.569 3.938 0 7.877-3.938 7.877-3.938 7.877 0 11.815 3.938 15.754 11.815 7.877 11.815 11.815 23.631 15.754 35.446 7.877 11.815 3.938 23.631-7.877 27.569zM133.908 621.292c0 0 3.938 0 3.938 0 7.877 0 15.754 7.877 19.692 15.754 3.938 11.815 7.877 23.631 11.815 35.446s0 19.692-11.815 23.631c-11.815 3.938-23.631-3.938-27.569-11.815-3.938-11.815-7.877-27.569-7.877-39.385-3.938-11.815 3.938-19.692 11.815-23.631zM897.969 538.585c-7.877 0-19.692-7.877-19.692-15.754 0-11.815-3.938-23.631-3.938-35.446s3.938-19.692 15.754-23.631c0 0 3.938 0 3.938 0 7.877 0 15.754 7.877 19.692 15.754 3.938 11.815 3.938 27.569 3.938 39.385-3.938 11.815-11.815 19.692-19.692 19.692zM173.292 420.431c-3.938 11.815-7.877 23.631-11.815 35.446s-11.815 15.754-23.631 11.815c-11.815-3.938-15.754-11.815-11.815-23.631s7.877-27.569 11.815-39.385c3.938-7.877 11.815-11.815 19.692-11.815 3.938 0 3.938 0 7.877 0 7.877 7.877 11.815 19.692 7.877 27.569zM129.969 507.077c11.815 0 19.692 11.815 19.692 19.692s0 15.754 0 27.569v11.815c0 11.815-7.877 19.692-19.692 19.692 0 0 0 0 0 0-11.815-3.938-19.692-11.815-19.692-19.692v-11.815c0-7.877 0-19.692 0-27.569 0-11.815 7.877-19.692 19.692-19.692 0 0 0 0 0 0zM204.8 357.415c-3.938 7.877-15.754 11.815-27.569 3.938-7.877-3.938-11.815-15.754-3.938-27.569s15.754-23.631 23.631-31.508c3.938-3.938 7.877-7.877 15.754-7.877 3.938 0 7.877 0 11.815 3.938 7.877 7.877 7.877 19.692 3.938 27.569-7.877 11.815-15.754 19.692-23.631 31.508zM819.2 554.338c0-86.646-47.262-157.538-70.892-189.046-3.938-3.938-3.938-7.877-7.877-11.815 0-7.877-3.938-15.754-11.815-19.692-39.385-35.446-51.2-78.769-59.077-110.277 0-3.938 0-3.938-3.938-7.877 7.877-19.692 0-39.385-3.938-55.138-3.938-11.815-15.754-23.631-31.508-27.569 0 0-3.938-3.938-3.938-7.877 7.877-43.323 7.877-70.892-3.938-90.585-19.692-66.954-98.462-94.523-110.277-94.523-15.754 0-102.4 31.508-114.215 110.277 0 3.938 0 3.938 0 7.877v66.954c-3.938 0-3.938 3.938-7.877 7.877-11.815 3.938-23.631 11.815-27.569 23.631-7.877 15.754-11.815 35.446-7.877 55.138 0 3.938 0 3.938-3.938 7.877-7.877 31.508-19.692 78.769-59.077 110.277-7.877 3.938-11.815 11.815-11.815 19.692 0 3.938-3.938 7.877-7.877 11.815-23.631 35.446-70.892 106.338-70.892 189.046 0 173.292 133.908 307.2 307.2 307.2 177.231 3.938 311.138-129.969 311.138-303.262zM590.769 215.631h-157.538c0-7.877 0-11.815 0-15.754 3.938 0 3.938-3.938 7.877-7.877h141.785c3.938 3.938 3.938 3.938 7.877 7.877 0 3.938 0 7.877 0 15.754zM559.262 77.785c0 11.815-3.938 31.508-7.877 47.262 0 3.938 0 3.938 0 7.877h-78.769c0 0 0 0 0 0v-74.831c3.938-19.692 23.631-31.508 39.385-39.385 11.815 7.877 35.446 19.692 39.385 39.385 0 7.877 3.938 15.754 7.877 19.692zM736.492 514.954h-448.985c11.815-47.262 35.446-86.646 55.138-110.277 3.938-7.877 11.815-15.754 11.815-23.631 39.385-35.446 55.138-78.769 66.954-110.277h185.108c11.815 31.508 27.569 74.831 66.954 110.277 3.938 7.877 7.877 15.754 11.815 23.631 15.754 23.631 43.323 63.015 51.2 110.277zM740.431 593.723c-19.692 110.277-110.277 189.046-228.431 189.046-114.215 0-208.738-82.708-228.431-192.985h456.862z" />
<glyph unicode="&#xe929;" glyph-name="icon-update" d="M525.964 852.945c-218.764 0-400.291-176.873-404.945-395.636h-121.018l181.527-204.8 181.527 204.8h-139.636c4.655 162.909 139.636 293.236 302.545 293.236 167.564 0 302.545-134.982 302.545-302.545s-134.982-302.545-302.545-302.545c-65.164 0-130.327 23.273-181.527 60.509l-65.164-79.127c69.818-55.855 153.6-88.436 251.345-88.436 223.418 0 404.945 181.527 404.945 404.945s-186.182 409.6-409.6 409.6v0zM488.727 666.764v-232.727l148.945-148.945 51.2 51.2-130.327 125.673v204.8h-69.818z" />
<glyph unicode="&#xe92a;" glyph-name="icon-offcanvas-contactsupport" horiz-adv-x="1014" d="M560.302 3.623c173.887 19.321 313.962 149.736 347.774 313.962 48.302 33.811 82.113 91.774 82.113 159.396 0 77.283-43.472 140.075-101.434 173.887-53.132 159.396-202.868 275.321-381.585 275.321-173.887 0-323.623-111.094-376.755-265.66-53.132-33.811-106.264-111.094-106.264-178.717 0-106.264 82.113-193.208 183.547-193.208v299.472c28.981 140.075 149.736 246.34 299.472 246.34s270.491-106.264 299.472-246.34v-280.151c-33.811-111.094-130.415-193.208-251.17-207.698-14.491 19.321-38.642 33.811-67.623 33.811-48.302 0-86.943-38.642-86.943-86.943s38.642-86.943 86.943-86.943c28.981 4.83 57.962 19.321 72.453 43.472z" />
<glyph unicode="&#xe92b;" glyph-name="icon-offcanvas-deals" d="M949.527 820.364c-4.655 41.891-41.891 79.127-83.782 83.782l-204.8 27.927c-41.891 4.655-97.745-13.964-125.673-41.891l-479.418-484.073c-27.927-27.927-27.927-74.473 0-107.055l288.582-288.582c27.927-27.927 74.473-27.927 107.055 0l479.418 479.418c27.927 27.927 46.545 83.782 41.891 125.673l-23.273 204.8zM879.709 545.745l-479.418-479.418c0 0 0 0 0 0l-293.236 288.582c0 0 0 0 0 0l479.418 479.418c13.964 13.964 46.545 23.273 65.164 23.273l204.8-27.927c4.655 0 18.618-9.309 18.618-18.618l27.927-204.8c0-13.964-13.964-51.2-23.273-60.509zM628.364 745.891c-41.891-41.891-41.891-116.364 0-158.255s116.364-41.891 158.255 0 41.891 116.364 0 158.255c-41.891 46.545-111.709 46.545-158.255 0zM735.418 643.491c-13.964-13.964-37.236-13.964-51.2 0s-13.964 37.236 0 51.2c13.964 13.964 37.236 13.964 51.2 0s13.964-37.236 0-51.2z" />
<glyph unicode="&#xe92c;" glyph-name="icon-offcanvas-myproducts" horiz-adv-x="698" d="M558.545 927.418h-418.909c-60.509 0-111.709-51.2-111.709-111.709v-735.418c0-60.509 51.2-111.709 111.709-111.709h418.909c60.509 0 111.709 51.2 111.709 111.709v735.418c0 60.509-51.2 111.709-111.709 111.709zM102.4 741.236h493.382v-553.891h-493.382v553.891zM139.636 852.945h418.909c18.618 0 37.236-13.964 37.236-37.236h-493.382c0 23.273 18.618 37.236 37.236 37.236zM558.545 43.055h-418.909c-18.618 0-37.236 18.618-37.236 37.236v37.236h493.382v-37.236c0-18.618-18.618-37.236-37.236-37.236z" />
<glyph unicode="&#xe92d;" glyph-name="icon-offcanvas-repair" horiz-adv-x="1081" d="M521.608 337.803l-104.515 104.981-98.683-99.126c-27.129-27.25-64.506-41.152-102.837-39.461-47.578 2.102-95.832-15.077-132.165-51.569-52.015-52.249-64.63-129.053-37.91-193.25l101.224 101.675c26.069 26.186 68.336 26.186 94.405 0v0c26.069-26.186 26.069-68.641 0-94.826l-101.224-101.675c63.912-26.838 140.378-14.17 192.393 38.079 36.333 36.492 53.433 84.964 51.343 132.754-1.686 38.499 12.154 76.042 39.283 103.293l98.686 99.126zM1005.297 833.801l-104.685-105.151c-26.069-26.186-68.336-26.186-94.405 0v0c-26.069 26.186-26.069 68.641 0 94.826l104.685 105.151c-63.912 26.838-140.375 14.167-192.393-38.079-36.33-36.492-53.433-84.964-51.343-132.754 1.686-38.499-12.154-76.042-39.283-103.293l-73.574-73.905 104.512-104.978 73.574 73.902c27.129 27.25 64.509 41.152 102.837 39.458 47.578-2.1 95.835 15.080 132.165 51.572 52.015 52.249 64.63 129.053 37.91 193.25zM636.353 405.612l-315.678 317.085c-3.463 3.479-5.597 8.066-6.034 12.961l-2.225 24.964c-0.475 5.327-2.956 10.271-6.94 13.82l-124.456 110.884-64.090-64.373 110.392-125.011c3.533-4.002 8.456-6.497 13.759-6.974l24.853-2.232c4.877-0.439 9.443-2.585 12.904-6.061l315.681-317.085-14.021-42.187c-5.012-15.077-1.106-31.704 10.082-42.945l307.778-309.149c24.464-24.574 64.128-24.574 88.593 0l41.932 42.119c24.464 24.573 24.464 64.414 0 88.987l-307.778 309.149c-11.191 11.241-27.744 15.161-42.755 10.127l-41.997-14.080z" />
<glyph unicode="&#xe92e;" glyph-name="icon-offcanvas-troubleshoot" horiz-adv-x="668" d="M422.957 572.661l-111.304-102.4-31.165 26.713c-13.357 13.357-35.617 13.357-48.974 0s-13.357-35.617 0-48.974l53.426-48.974c13.357-13.357 35.617-13.357 48.974 0l133.565 124.661c13.357 13.357 13.357 35.617 0 48.974-8.904 8.904-31.165 13.357-44.522 0zM440.765 292.174c-13.357 13.357-35.617 13.357-48.974 0l-40.070-35.617-40.070 40.070c-13.357 13.357-35.617 13.357-48.974 0s-13.357-35.617 0-48.974l35.617-40.070-40.070-35.617c-13.357-13.357-13.357-35.617 0-48.974s35.617-13.357 48.974 0l40.070 35.617 35.617-44.522c13.357-13.357 35.617-13.357 48.974 0s13.357 35.617 0 48.974l-35.617 40.070 40.070 35.617c13.357 17.809 17.809 40.070 4.452 53.426zM529.809 773.009h-22.261c-4.452 31.165-26.713 53.426-57.878 57.878-8.904 53.426-57.878 97.948-115.757 97.948s-106.852-44.522-111.304-102.4c-31.165-4.452-53.426-26.713-57.878-53.426h-22.261c-57.878 0-106.852-48.974-106.852-106.852v-592.139c0-57.878 48.974-106.852 106.852-106.852h387.339c57.878 0 106.852 48.974 106.852 106.852v587.687c0 62.33-48.974 111.304-106.852 111.304zM436.313 679.513h-200.348v80.139h200.348v-80.139zM333.913 857.6c17.809 0 31.165-13.357 40.070-26.713h-80.139c8.904 17.809 22.261 26.713 40.070 26.713zM565.426 74.017c0-17.809-17.809-35.617-35.617-35.617h-387.339c-17.809 0-35.617 17.809-35.617 35.617v587.687c0 17.809 17.809 35.617 35.617 35.617h22.261v-22.261c0-40.070 31.165-71.235 71.235-71.235h200.348c40.070 0 71.235 31.165 71.235 71.235v26.713h22.261c17.809 0 35.617-17.809 35.617-35.617v-592.139z" />
<glyph unicode="&#xe92f;" glyph-name="icon-logo-eb" horiz-adv-x="960" d="M512 38.4c224 0 409.6 179.2 409.6 409.6s-185.6 409.6-409.6 409.6-409.6-185.6-409.6-409.6 185.6-409.6 409.6-409.6v0zM512 89.6c-198.4 0-364.8 160-364.8 358.4s166.4 364.8 364.8 364.8 358.4-160 358.4-364.8-160-358.4-358.4-358.4v0zM211.2 384v0c0-12.8 0-25.6 6.4-38.4s6.4-19.2 19.2-32c6.4-6.4 19.2-12.8 25.6-19.2 12.8-6.4 25.6-6.4 38.4-6.4 25.6 0 44.8 6.4 57.6 19.2 12.8 6.4 19.2 19.2 25.6 44.8h19.2c-6.4-25.6-19.2-44.8-38.4-64s-38.4-19.2-70.4-19.2c-19.2 0-32 0-44.8 6.4s-25.6 12.8-32 25.6c-6.4 12.8-12.8 19.2-19.2 38.4 0 12.8 0 25.6 0 44.8 0 12.8 0 32 6.4 44.8s12.8 25.6 19.2 38.4c6.4 6.4 19.2 12.8 32 19.2s25.6 6.4 44.8 6.4c19.2 0 32 0 44.8-6.4s25.6-12.8 32-25.6c6.4-6.4 12.8-19.2 19.2-25.6 6.4-12.8 6.4-25.6 6.4-38.4 0 0 0 0 0-6.4s0-6.4 0-6.4h-192zM384 396.8c0 12.8 0 25.6-6.4 32 0 12.8-6.4 19.2-12.8 25.6-6.4 12.8-19.2 19.2-25.6 19.2-12.8 6.4-25.6 6.4-38.4 6.4s-25.6 0-38.4-6.4c-6.4 0-19.2-6.4-25.6-19.2-6.4-6.4-12.8-12.8-12.8-25.6-6.4-12.8-6.4-19.2-6.4-32h166.4zM448 576h128c19.2 0 38.4 0 51.2-6.4s25.6-12.8 32-19.2c6.4-6.4 12.8-12.8 19.2-25.6 6.4-6.4 6.4-19.2 6.4-25.6s0-12.8-6.4-25.6c0-6.4-6.4-12.8-12.8-19.2-12.8-6.4-19.2-6.4-25.6-12.8s-12.8-6.4-25.6-6.4v0c0 0 6.4 0 12.8 0s19.2-6.4 25.6-12.8c6.4-6.4 19.2-12.8 25.6-25.6s12.8-19.2 12.8-38.4c0-12.8 0-25.6-6.4-38.4s-12.8-19.2-25.6-25.6c-12.8-6.4-19.2-12.8-38.4-19.2s-25.6 0-44.8 0h-128v300.8zM576 441.6c25.6 0 51.2 6.4 64 19.2s19.2 25.6 19.2 44.8c0 12.8 0 19.2-6.4 25.6s-12.8 12.8-19.2 12.8c-6.4 6.4-19.2 12.8-25.6 12.8-12.8 0-19.2 0-32 0h-108.8v-121.6h108.8zM576 294.4c32 0 51.2 6.4 70.4 19.2s25.6 25.6 25.6 51.2c0 12.8 0 25.6-6.4 32s-12.8 12.8-19.2 19.2-25.6 6.4-38.4 6.4-19.2 0-32 0h-108.8v-134.4h108.8zM736 326.4c12.8 0 25.6-12.8 25.6-25.6s-12.8-25.6-25.6-25.6-32 12.8-32 25.6 12.8 25.6 32 25.6z" />
<glyph unicode="&#xe930;" glyph-name="icon-logo-halebop" horiz-adv-x="960" d="M470.456 326.248c76.715-0.015 138.424 61.089 138.54 137.185 0.12 77.289-61.169 139.679-137.282 139.751-76.489 0.072-138.709-62.043-138.731-138.498-0.021-76.44 61.527-138.423 137.473-138.438zM353.2 639.694c18.949 8.424 36.486 16.174 53.987 24.010 18.218 8.155 26.451 23.573 29.841 42.18 3.573 19.596 6.896 39.245 9.937 58.93 0.911 5.895 3.264 9.874 9.325 10.080 9.848 0.338 19.73 0.412 29.573-0.014 5.886-0.253 8.334-4.002 9.294-10.096 3.403-21.57 6.983-43.142 11.511-64.496 4.003-18.875 15.438-31.625 33.842-38.812 13.959-5.45 27.316-12.569 40.58-19.623 4.875-2.595 7.905-2.962 12.608 0.601 22.279 16.878 45.084 33.060 67.38 49.917 5.193 3.927 9.412 4.683 14.526 0.81 3.58-2.711 7.525-4.998 10.834-8 18.421-16.719 18.768-20.136 4.601-39.856-13.505-18.8-26.797-37.762-40.719-56.248-4.464-5.928-4.989-9.922-1.042-16.808 36.563-63.804 40.061-129.742 9.821-196.802-9.053-20.074-7.226-37.959 4.62-55.5 10.974-16.248 22.028-32.461 33.643-48.25 4.418-6.001 4.485-10.771-0.050-16.201-2.469-2.954-4.562-6.245-7.186-9.042-14.412-15.378-17.78-15.704-34.897-3.799-12.659 8.804-25.361 17.543-37.947 26.448-18.828 13.323-38.066 16.308-59.589 5.572-12.209-6.088-25.741-9.669-38.915-13.57-5.405-1.601-7.728-3.613-8.538-9.489-4.084-29.601-8.648-59.139-13.453-88.632-0.44-2.695-3.642-6.881-5.795-7.032-12.927-0.905-25.973-1.504-38.853-0.53-2.625 0.199-6.080 7.306-6.825 11.631-4.904 28.499-9.35 57.084-13.482 85.707-0.747 5.176-3.052 6.732-7.531 8.145-14.020 4.425-28.5 8.114-41.616 14.525-19.644 9.597-37.242 6.908-54.384-4.708-16.75-11.351-33.354-22.935-49.722-34.829-4.607-3.349-8.256-3.944-12.653-0.363-3.968 3.233-8.436 5.928-12.066 9.491-14.603 14.34-14.74 16.884-3.229 33.526 9.51 13.748 19.277 27.328 28.434 41.306 11.27 17.201 13.496 34.433 4.441 54.437-30.896 68.262-27.514 135.403 10.741 200.177 3.26 5.522 2.45 8.81-0.993 13.433-16.515 22.173-32.557 44.703-49.158 66.808-3.914 5.214-4.479 9.58-0.752 14.682 3.025 4.141 5.679 8.634 9.157 12.35 15.922 17.006 19.173 17.207 37.756 3.669 21.538-15.689 43.113-31.328 62.945-45.735zM687.332 745.526c-0.147 33.944 30.747 65.134 64.504 65.122 33.357-0.010 65.098-31.772 65.023-65.068-0.071-32.588-31.831-64.631-64.475-65.053-33.031-0.427-64.907 31.422-65.052 64.999zM126.512 182.14c0.083 33.626 31.644 65.329 64.842 65.132 32.914-0.197 64.795-32.768 64.462-65.855-0.338-33.441-32.138-64.552-65.683-64.258-33.292 0.294-63.703 31.355-63.621 64.981zM752.172 117.201c-33.191-0.17-64.469 30.726-64.84 64.047-0.376 33.855 30.543 65.873 63.779 66.043 33.296 0.172 65.21-31.161 65.746-64.55 0.53-32.959-31.457-65.37-64.685-65.54zM126.555 746.719c0.108 32.814 31.532 64.37 64.357 64.624 32.466 0.249 65.044-32.61 64.901-65.467-0.143-33.211-32.379-65.281-65.266-64.927-33.354 0.358-64.105 31.962-63.993 65.77zM534.167 862.984c0.16-38.042-25.244-63.877-63.013-64.084-37.2-0.203-62.874 25.479-62.957 62.978-0.087 39.015 24.239 64.061 62.342 64.189 38.421 0.13 63.466-24.702 63.628-63.083zM534.165 65.011c-0.042-38.195-25.236-63.179-63.624-63.092-37.993 0.085-62.444 25.261-62.343 64.189 0.098 37.569 25.514 62.918 62.982 62.826 37.979-0.095 63.028-25.514 62.986-63.922z" />
<glyph unicode="&#xe931;" glyph-name="icon-logo-telia" horiz-adv-x="960" d="M525.787 126.306h-0.006c-145.448-60.156-228.722-40.986-274.736-3.466l-0.657 0.547c71.234-72.446 152.405-123.388 223.584-123.388 124.662 0 295.349 154.228 376.11 393.359-45.523-86.358-143.187-192.409-324.296-267.053zM543.248 448.713c206.85 101.73 350.901 246.48 325.779 342.42-41.249 72.644-124.705 100.296-214.181 100.296-265.28 0-590.846-178.283-590.846-405.755 0-29.231 6.319-61.93 17.653-96.179 60.505-81.855 245.475-47.071 461.595 59.219zM210.092 167.889c-38.834 46.464-72.968 98.286-98.46 149.621 73.409-81.943 237.925-53.030 457.192 54.395 181.774 89.053 319.176 225.378 325.791 333.763 0.916-9.387 1.385-19.183 1.385-29.41 0-73.285-8.789-142.731-24.172-207.23-37.394-89.654-118.475-173.776-231.819-240.825-190.798-112.859-339.645-142.159-429.917-60.313z" />
<glyph unicode="&#xe932;" glyph-name="icon-offcanvas-dash" d="M585.143 960h438.857v-438.857h-438.857v438.857zM0 960h438.857v-438.857h-438.857v438.857zM0 374.857h438.857v-438.857h-438.857v438.857zM585.143 374.857h438.857v-438.857h-438.857v438.857z" />
<glyph unicode="&#xe933;" glyph-name="empty_battery" horiz-adv-x="542" d="M521.035-30.871h-505.976v924.612h150.588v51.2h204.8v-51.2h150.588v-924.612zM45.176-0.753h445.741v864.376h-150.588v51.2h-144.565v-51.2h-150.588v-864.376z" />
<glyph unicode="&#xe934;" glyph-name="hand_icon" horiz-adv-x="832" d="M300.8 633.6v0c-3.2-76.8-3.2-150.4-3.2-227.2 0-25.6-12.8-48-38.4-54.4-25.6-9.6-54.4-3.2-70.4 16-12.8 16-22.4 32-32 48s-19.2 35.2-28.8 51.2c-9.6 16-32 22.4-51.2 16s-22.4-12.8-12.8-28.8c73.6-137.6 147.2-278.4 220.8-416 3.2-9.6 9.6-9.6 19.2-9.6 92.8 0 182.4 0 275.2 0 41.6 0 80 0 121.6 0 25.6 0 38.4 9.6 44.8 35.2 3.2 12.8 6.4 22.4 6.4 35.2 3.2 48 6.4 96 9.6 144 0 67.2 0 134.4 0 201.6 0 19.2-16 32-35.2 32s-28.8-12.8-32-32c0-12.8 0-25.6-3.2-38.4s-12.8-19.2-25.6-22.4c-12.8-3.2-22.4 3.2-28.8 16 3.2 0 3.2 9.6 3.2 16 0 28.8 0 54.4 0 83.2 0 12.8-3.2 22.4-16 25.6-25.6 12.8-51.2 0-54.4-32 0-16 0-28.8 0-44.8 0-19.2-19.2-32-38.4-25.6-12.8 3.2-19.2 12.8-19.2 32 0 35.2 0 70.4 0 105.6 0 12.8-6.4 22.4-16 32-22.4 12.8-64 3.2-60.8-35.2 3.2-22.4 0-44.8-3.2-67.2-3.2-16-16-25.6-32-22.4-16 0-25.6 12.8-28.8 35.2 0 41.6 0 80 0 121.6 0 80 0 156.8 0 236.8 0 16-6.4 28.8-19.2 35.2-22.4 9.6-54.4-6.4-54.4-32 6.4-76.8 3.2-153.6 3.2-230.4zM569.6 585.6c25.6 9.6 51.2 6.4 73.6-3.2 25.6-9.6 41.6-28.8 51.2-51.2 22.4 0 41.6 3.2 64 0 41.6-9.6 67.2-44.8 67.2-86.4 0-76.8 0-156.8 0-233.6 0-48-6.4-96-12.8-144-9.6-60.8-51.2-99.2-112-99.2-134.4 0-268.8 0-406.4 0-25.6 0-44.8 12.8-57.6 35.2-76.8 144-153.6 291.2-227.2 435.2-19.2 32-9.6 64 22.4 86.4 48 35.2 124.8 28.8 160-41.6 12.8-22.4 25.6-44.8 38.4-67.2 3.2-3.2 6.4-6.4 9.6-12.8 0 6.4 0 12.8 0 16 0 124.8 0 249.6 0 377.6 0 28.8 0 54.4 3.2 83.2 6.4 44.8 44.8 80 96 80 44.8 0 80-28.8 89.6-67.2 3.2-9.6 3.2-22.4 3.2-32 0-64 0-124.8 0-188.8v-19.2c67.2 12.8 115.2-3.2 137.6-67.2z" />
<glyph unicode="&#xe935;" glyph-name="icon_protective_case" d="M672 853.333h-320c-55.467 0-102.4-46.933-102.4-102.4v-605.867c0-55.467 46.933-102.4 102.4-102.4h320c55.467 0 102.4 46.933 102.4 102.4v605.867c0 55.467-46.933 102.4-102.4 102.4zM512 597.333c-36.267 0-64 27.733-64 64s27.733 64 64 64 64-27.733 64-64-27.733-64-64-64z" />
<glyph unicode="&#xe936;" glyph-name="icon_brightness" d="M521.428 917.333c11.161-5.097 22.57-10.171 27.691-22.434 2.562-6.138 4.885-12.884 5.072-19.42 0.626-21.955 0.592-43.946 0.152-65.911-0.479-23.951-18.4-41.356-41.93-41.567-23.838-0.214-42.121 17.18-42.725 41.589-0.531 21.438-0.38 42.901-0.083 64.348 0.28 20.39 10.596 34.341 29.799 41.521 1.154 0.431 2.165 1.24 3.242 1.874h18.784zM42.667 457.372c0.996 2.050 2.064 4.069 2.98 6.153 7.29 16.561 19.851 26.19 38.070 26.685 22.219 0.605 44.476 0.578 66.7 0.105 24.38-0.518 41.769-18.792 41.582-42.717-0.184-23.526-17.606-41.465-41.568-41.963-21.443-0.446-42.903-0.334-64.352-0.067-20.377 0.252-34.293 10.516-41.505 29.798-0.429 1.148-1.262 2.146-1.906 3.214v18.793zM502.711-21.333c-10.393 4.802-21.393 9.285-26.563 20.361-3.229 6.919-5.966 14.728-6.257 22.242-0.83 21.406-0.584 42.871-0.218 64.303 0.374 21.914 14.739 38.69 35.012 41.827 22.164 3.428 41.206-8.048 48.010-29.497 1.543-4.862 1.783-10.281 1.841-15.451 0.207-18.822 0.117-37.649 0.074-56.474-0.058-24.199-8.859-37.008-31.365-45.873-0.664-0.261-1.161-0.95-1.734-1.441h-18.799zM981.333 438.636c-0.907-1.804-1.92-3.565-2.703-5.421-7.305-17.305-20.262-27.065-39.136-27.508-21.959-0.515-43.945-0.473-65.906-0.022-24.274 0.498-41.741 18.82-41.586 42.743 0.152 23.478 17.586 41.424 41.591 41.95 21.175 0.465 42.371 0.269 63.555 0.099 20.886-0.168 34.741-10.117 42.292-29.819 0.44-1.148 1.254-2.154 1.894-3.225v-18.796zM522.916 579.707c-78.296 0.461-142.328-63.091-142.838-141.763-0.509-78.731 63.226-143.216 141.972-143.641 78.582-0.424 142.862 63.501 143.188 142.4 0.325 78.885-63.023 142.538-142.322 143.005zM746.663 436.604c-0.725-124.446-101.138-224.12-224.921-223.265-123.903 0.855-223.189 100.396-223.075 223.647 0.115 124.271 101.478 225.357 224.955 224.34 123.851-1.020 223.758-101.68 223.041-224.722zM208.123 106.674c-13.555 0.729-26.684 9.197-33.743 25.781-6.845 16.077-4.236 31.176 7.903 43.875 14.788 15.472 29.859 30.686 45.175 45.635 15.282 14.916 35.147 16.691 52.525 5.348 16.435-10.729 23.154-30.656 15.585-49.837-2.52-6.387-7.444-12.151-12.283-17.233-12.848-13.499-26.239-26.481-39.437-39.647-8.635-8.615-18.666-14.153-35.725-13.921zM811.482 106.682c-11.081-0.304-20.667 3.789-28.402 11.307-15.737 15.292-31.382 30.712-46.375 46.729-15.789 16.867-14.897 41.572 1.187 58.019 15.133 15.474 41.079 16.149 57.429 0.527 16.756-16.009 33.398-32.258 48.724-49.613 10.538-11.934 11.84-26.823 5.274-41.744-6.9-15.683-21.294-25.166-37.836-25.225zM298.667 708.336c-0.881-22.174-8.497-35.307-24.395-42.63-16.164-7.445-31.893-5.472-44.901 6.604-16.641 15.451-32.625 31.65-48.275 48.113-14.541 15.294-13.622 40.419 1.165 55.652 15.175 15.631 39.813 18.099 55.444 3.874 17.889-16.279 35.063-33.455 51.287-51.377 5.732-6.332 7.75-16.011 9.675-20.236zM853.333 746.806c-0.683-11.080-4.35-20.875-12.379-28.852-14.502-14.41-28.775-29.055-43.491-43.244-17.709-17.076-41.884-17.797-58.639-2.206-16.989 15.812-18.36 40.791-1.676 58.966 15.316 16.685 31.715 32.451 48.412 47.781 13.081 12.013 28.953 12.665 44.404 5.256 15.351-7.361 22.765-20.661 23.369-37.702z" />
<glyph unicode="&#xe937;" glyph-name="icon_cold" d="M921.6 492.8l-38.4 21.333 14.933 4.267 42.667 12.8-17.067 61.867-42.667-12.8-14.933-4.267 21.333 38.4 14.933 27.733-55.467 32-14.933-27.733-44.8-78.933-8.533-14.933-64-19.2c-29.867 61.867-89.6 106.667-160 117.333v53.333l100.267 100.267-44.8 44.8-23.467-23.467-32-34.133v61.867h-64v-61.867l-53.333 53.333-44.8-44.8 100.267-100.267v-53.333c-70.4-10.667-130.133-55.467-160-117.333l-42.667 12.8-8.533 14.933-44.8 78.933-14.933 27.733-55.467-32 14.933-27.733 21.333-38.4-19.2 6.4-38.4 10.667-17.067-61.867 36.267-8.533 19.2-6.4-38.4-21.333-25.6-14.933 29.867-55.467 27.733 14.933 93.867 53.333 40.533-10.667c-2.133-10.667-2.133-21.333-2.133-32 0-61.867 25.6-117.333 68.267-155.733l-36.267-57.6-17.067-2.133-89.6-14.933-32-6.4 10.667-64 74.667 14.933-10.667-17.067-23.467-34.133 53.333-36.267 23.467 34.133 10.667 14.933 14.933-74.667 64 10.667-8.533 34.133-14.933 89.6-2.133 17.067 38.4 55.467c27.733-12.8 59.733-21.333 91.733-21.333 34.133 0 66.133 8.533 96 23.467l29.867-42.667-2.133-17.067-14.933-89.6-6.4-32 64-10.667 14.933 74.667 10.667-14.933 23.467-34.133 53.333 36.267-23.467 34.133-10.667 14.933 74.667-14.933 10.667 64-32 6.4-89.6 14.933-17.067 2.133-29.867 42.667c40.533 38.4 66.133 93.867 66.133 153.6 0 10.667-2.133 21.333-2.133 32l64 17.067 14.933-8.533 78.933-44.8 27.733-14.933 32 55.467-36.267 19.2zM650.667 514.133l-96-27.733v96c40.533-8.533 74.667-34.133 96-68.267zM490.667 582.4v-98.133l-96 27.733c19.2 36.267 55.467 61.867 96 70.4zM373.333 437.333c0 4.267 0 8.533 0 14.933l102.4-29.867-4.267-4.267-57.6-83.2c-23.467 25.6-40.533 61.867-40.533 102.4zM522.667 288c-19.2 0-36.267 4.267-53.333 10.667l55.467 81.067 55.467-78.933c-17.067-8.533-36.267-12.8-57.6-12.8zM672 437.333c0-38.4-14.933-74.667-38.4-100.267l-61.867 87.467 100.267 27.733c0-4.267 0-10.667 0-14.933z" />
<glyph unicode="&#xe938;" glyph-name="icon_halfbattery" d="M704 823.467h-89.6v8.533c0 17.067-14.933 32-32 32h-142.933c-17.067 0-32-14.933-32-32v-8.533h-87.467c-17.067 0-32-14.933-32-32v-706.133c0-17.067 14.933-32 32-32h384c17.067 0 32 14.933 32 32v706.133c0 17.067-12.8 32-32 32zM441.6 759.467c17.067 0 32 14.933 32 32v8.533h78.933v-8.533c0-17.067 14.933-32 32-32h89.6v-300.8h-322.133v300.8h89.6z" />
<glyph unicode="&#xe939;" glyph-name="icon_signal" d="M416 42.667c-29.867 0-53.333 23.467-53.333 53.333v256c0 29.867 23.467 53.333 53.333 53.333s53.333-23.467 53.333-53.333v-256c0-29.867-23.467-53.333-53.333-53.333zM640 96v426.667c0 29.867-23.467 53.333-53.333 53.333s-53.333-23.467-53.333-53.333v-426.667c0-29.867 23.467-53.333 53.333-53.333s53.333 23.467 53.333 53.333zM810.667 96v597.333c0 29.867-23.467 53.333-53.333 53.333s-53.333-23.467-53.333-53.333v-597.333c0-29.867 23.467-53.333 53.333-53.333s53.333 23.467 53.333 53.333zM298.667 96v85.333c0 29.867-23.467 53.333-53.333 53.333s-53.333-23.467-53.333-53.333v-85.333c0-29.867 23.467-53.333 53.333-53.333s53.333 23.467 53.333 53.333z" />
<glyph unicode="&#xe93a;" glyph-name="icon_software-update" d="M398.933 177.067l-10.667-12.8c-2.133-4.267-6.4-6.4-12.8-8.533 0 0-2.133 0-4.267 0-4.267 0-8.533 2.133-10.667 4.267-87.467 64-140.8 166.4-140.8 275.2 0 179.2 138.667 326.4 313.6 334.933v59.733c0 8.533 4.267 14.933 12.8 17.067 6.4 2.133 14.933 2.133 21.333-4.267l145.067-153.6c6.4-6.4 6.4-19.2 0-25.6l-145.067-151.467c-6.4-6.4-12.8-6.4-21.333-4.267-6.4 2.133-12.8 10.667-12.8 17.067v66.133c-115.2-10.667-204.8-106.667-204.8-226.133 0-61.867 23.467-119.467 66.133-162.133 8.533-8.533 8.533-19.2 4.267-25.6zM659.2 518.4c-4.267 2.133-8.533 4.267-14.933 4.267-4.267 0-8.533-4.267-12.8-8.533l-6.4-10.667c-6.4-8.533-4.267-17.067 2.133-25.6 29.867-29.867 44.8-68.267 44.8-108.8 0-78.933-57.6-142.933-132.267-151.467v40.533c0 8.533-4.267 14.933-12.8 17.067-6.4 2.133-14.933 2.133-21.333-4.267l-102.4-106.667c-6.4-6.4-6.4-19.2 0-25.6l102.4-108.8c4.267-4.267 8.533-6.4 14.933-6.4 2.133 0 4.267 0 6.4 2.133 6.4 2.133 12.8 10.667 12.8 17.067v36.267c123.733 10.667 219.733 113.067 219.733 241.067 0 81.067-36.267 153.6-100.267 198.4z" />
<glyph unicode="&#xe93b;" glyph-name="icon_temp" d="M512 17.067c-108.8 0-196.267 89.6-196.267 200.533 0 59.733 25.6 117.333 72.533 155.733v381.867c0 68.267 55.467 125.867 125.867 125.867s125.867-55.467 125.867-125.867v-381.867c44.8-38.4 72.533-96 72.533-155.733-4.267-110.933-91.733-200.533-200.533-200.533zM512 827.733c-40.533 0-72.533-32-72.533-72.533v-407.467l-10.667-8.533c-38.4-27.733-61.867-72.533-61.867-121.6 0-81.067 64-149.333 145.067-149.333s145.067 66.133 145.067 149.333c0 49.067-23.467 93.867-61.867 121.6l-10.667 8.533v42.667h-51.2v53.333h51.2v53.333h-51.2v53.333h51.2v74.667h-51.2v53.333h51.2v76.8c0 38.4-32 72.533-72.533 72.533zM512 100.267c-64 0-115.2 51.2-115.2 115.2s51.2 115.2 115.2 115.2c64 0 115.2-51.2 115.2-115.2s-51.2-115.2-115.2-115.2zM512 275.2c-34.133 0-61.867-27.733-61.867-61.867s27.733-61.867 61.867-61.867c34.133 0 61.867 27.733 61.867 61.867s-27.733 61.867-61.867 61.867z" />
<glyph unicode="&#xe93c;" glyph-name="icon_wifi" d="M686.933 332.8c-87.467 87.467-228.267 87.467-315.733 0-21.333-21.333-21.333-55.467 0-74.667s55.467-21.333 74.667 0c44.8 44.8 119.467 44.8 166.4 0 21.333-21.333 55.467-21.333 74.667 0s19.2 53.333 0 74.667v0zM836.267 484.267c-170.667 170.667-448 170.667-618.667 0-21.333-21.333-21.333-55.467 0-74.667s55.467-21.333 74.667 0c130.133 130.133 339.2 130.133 467.2 0 21.333-21.333 55.467-21.333 74.667 0 23.467 19.2 23.467 53.333 2.133 74.667v0zM987.733 633.6c-253.867 253.867-665.6 253.867-919.467 0-21.333-21.333-21.333-55.467 0-74.667s55.467-21.333 74.667 0c213.333 213.333 556.8 213.333 770.133 0 21.333-21.333 55.467-21.333 74.667 0 21.333 21.333 21.333 53.333 0 74.667v0zM482.133 189.867c25.6 25.6 66.133 25.6 89.6 0 25.6-25.6 25.6-66.133 0-89.6-25.6-25.6-66.133-25.6-89.6 0-23.467 23.467-23.467 64 0 89.6z" />
</font>
</defs>
</svg>
