
<svg width="43px" height="45px" viewBox="173 188 43 45" version="1.1" xmlns="http://www.w3.org/2000/svg" xmlns:xlink="http://www.w3.org/1999/xlink">
    <!-- Generator: Sketch 3.8.3 (29802) - http://www.bohemiancoding.com/sketch -->
    <desc>Created with Sketch.</desc>
    <defs></defs>
    <g id="Page-1" stroke="none" stroke-width="1" fill="none" fill-rule="evenodd" transform="translate(173.000000, 188.000000)">
        <g id="Group-3" transform="translate(0.000000, 0.493600)" fill="#4A4A4A">
            <path d="M21.2472,40.6572 C10.8232,40.6572 2.3432,32.1772 2.3432,21.7532 C2.3432,11.3292 10.8232,2.8492 21.2472,2.8492 C31.6702,2.8492 40.1512,11.3292 40.1512,21.7532 C40.1512,32.1772 31.6702,40.6572 21.2472,40.6572 M21.2472,0.5062 C9.5312,0.5062 0.0002,10.0372 0.0002,21.7532 C0.0002,33.4682 9.5312,43.0002 21.2472,43.0002 C32.9622,43.0002 42.4932,33.4682 42.4932,21.7532 C42.4932,10.0372 32.9622,0.5062 21.2472,0.5062" id="Fill-1"></path>
        </g>
        <path d="M33.9962,31.6163 L33.5202,30.9583 L32.8252,30.4823 L31.5452,30.0063 L29.6422,29.3843 L28.1062,28.8363 L26.8992,28.4333 L25.3992,27.7023 L25.2892,26.8973 L25.1792,26.2383 L25.3262,25.6893 L25.3992,24.5923 C26.5332,23.3853 26.4232,21.7393 26.4232,21.7393 L26.6062,21.4473 L26.8262,21.0073 L27.1552,20.0923 L27.2282,19.5073 L27.4482,18.8493 L27.2652,18.2633 L27.1182,17.6783 L27.2652,17.0923 L27.2652,16.2883 L27.0452,15.8123 L27.0452,14.7513 L27.0452,13.9103 L26.8622,13.1423 L26.4232,12.5203 L25.9482,11.6423 L25.6182,10.9103 L24.8502,10.6173 L24.2282,10.2523 L23.3142,9.7763 L22.5462,9.4833 L21.8872,9.4833 L20.7162,9.4833 L19.6192,9.4833 L18.5212,9.8863 L18.0092,10.2153 L17.1312,11.0933 L16.3632,11.9713 L15.8872,13.0683 L15.8872,13.3983 L15.4482,14.2023 L15.5212,15.1543 L15.4482,15.9223 L15.5952,17.7513 L15.3392,17.8973 L15.1562,18.2273 L15.1922,19.1053 L15.4482,19.9833 L15.5952,20.7873 L16.0702,21.4473 L16.4362,21.9583 L16.9122,22.1783 L17.1312,25.0683 L16.7652,25.8723 L16.4362,26.3113 L16.2532,26.8603 L15.7412,27.3363 L14.6072,28.4703 L13.2532,29.2753 L11.8262,30.1533 L9.9972,31.1043 L9.4492,31.2503 L8.7172,31.6163 L8.0592,32.3113 C8.0592,32.5373 8.0722,32.7543 8.0912,32.9683 C11.2082,36.7853 15.9472,39.2273 21.2472,39.2273 C26.5652,39.2273 31.3192,36.7673 34.4352,32.9273 L34.4352,32.3113 L33.9962,31.6163 Z" id="Fill-4" fill="#4A4A4A"></path>
    </g>
</svg>