<svg width="43" height="45" viewBox="173 188 43 45"><g fill="#4A4A4A" fill-rule="evenodd"><path d="M194.247 229.15c-10.424 0-18.904-8.48-18.904-18.903 0-10.424 8.48-18.904 18.904-18.904 10.423 0 18.904 8.48 18.904 18.904s-8.48 18.904-18.904 18.904m0-40.151C182.531 189 173 198.53 173 210.247c0 11.715 9.531 21.247 21.247 21.247 11.715 0 21.246-9.532 21.246-21.247 0-11.716-9.53-21.247-21.246-21.247"/><path d="M206.996 219.616l-.476-.658-.695-.476-1.28-.476-1.903-.622-1.536-.548-1.207-.403-1.5-.73-.11-.806-.11-.659.147-.549.073-1.097c1.134-1.207 1.024-2.853 1.024-2.853l.183-.292.22-.44.33-.915.072-.585.22-.658-.183-.586-.147-.585.147-.586v-.804l-.22-.476V201.91l-.183-.768-.439-.622-.475-.878-.33-.732-.768-.293-.622-.365-.914-.476-.768-.293h-2.927l-1.098.403-.512.33-.878.877-.768.878-.476 1.097v.33l-.439.804.073.952-.073.768.147 1.83-.256.145-.183.33.036.878.256.878.147.804.475.66.366.511.476.22.22 2.89-.367.804-.329.44-.183.548-.512.476-1.134 1.134-1.354.805-1.427.878-1.829.951-.548.146-.732.366-.658.695c0 .226.013.443.032.657 3.117 3.817 7.856 6.26 13.156 6.26 5.318 0 10.072-2.46 13.188-6.3v-.617l-.439-.695z"/></g></svg>