
<svg width="75px" height="30px" viewBox="91 0 75 30" version="1.1" xmlns="http://www.w3.org/2000/svg" xmlns:xlink="http://www.w3.org/1999/xlink">
    <!-- Generator: Sketch 3.8.3 (29802) - http://www.bohemiancoding.com/sketch -->
    <desc>Created with Sketch.</desc>
    <defs>
        <polygon id="path-1" points="26.2000374 0.0533650179 3.0360954e-05 0.0533650179 3.0360954e-05 16.8374086 26.2000374 16.8374086 26.2000374 0.0533650179"></polygon>
        <polygon id="path-3" points="0.00390644279 12.169219 19.1823141 12.169219 19.1823141 0.0742521856 0.00390644279 0.0742521856"></polygon>
    </defs>
    <g id="Page-1" stroke="none" stroke-width="1" fill="none" fill-rule="evenodd" transform="translate(91.000000, 0.000000)">
        <path d="M33.4966742,10.6495429 C33.1250561,10.6495429 32.7542476,10.3748378 32.383844,9.82732265 C32.1407539,9.44748342 32.0201198,9.15911283 32.0201198,8.96231063 C32.0201198,8.62376694 32.2442848,8.3116564 32.6941329,8.02328581 C33.1436775,7.73501496 33.6318816,7.59077979 34.1604658,7.59077979 L42.9153506,7.59077979 C43.4715633,7.59077979 43.7502769,7.84403919 43.7502769,8.34985977 C43.7502769,8.92729918 43.5934119,9.45446576 43.2790749,9.93255647 C42.964839,10.4102482 42.6228734,10.6495429 42.252065,10.6495429 L39.4049159,10.6495429 L39.4049159,20.1860212 C39.4049159,20.7627624 39.2475449,21.290727 38.9340175,21.7680197 C38.6201864,22.2472077 38.2770064,22.4861034 37.9066028,22.4861034 C37.5349847,22.4861034 37.1641762,22.2121962 36.7933678,21.6627859 C36.5505814,21.2828469 36.4296436,20.9949751 36.4296436,20.7977739 L36.4296436,10.6495429 L33.4966742,10.6495429 Z" id="Fill-1" fill="#FFFFFF"></path>
        <path d="M47.0900223,13.8145772 C46.4041684,13.8145772 45.8190116,14.0081875 45.3343495,14.3943109 C44.8492827,14.7815314 44.5496201,15.298424 44.4354629,15.9451881 L49.4874245,15.9451881 C49.4581768,15.3409165 49.2158963,14.8341982 48.7590652,14.4262301 C48.3024364,14.0179628 47.7458189,13.8145772 47.0900223,13.8145772 L47.0900223,13.8145772 Z M44.4354629,18.0761979 C44.5923278,18.7378243 44.9342934,19.2684821 45.4628776,19.6697671 C45.9906522,20.0703538 46.6254997,20.2702482 47.3675214,20.2702482 C47.9960944,20.2702482 48.7444919,20.0594813 49.6151429,19.6378478 C50.0151991,19.4403474 50.3860075,19.3424949 50.7287827,19.3424949 C51.1854114,19.3424949 51.4139282,19.5462794 51.4139282,19.9542475 C51.4139282,20.320521 51.33165,20.6711342 51.1675997,21.0085806 C51.0035493,21.3472241 50.7932491,21.5927032 50.5362942,21.7470128 C50.0512274,22.042665 49.511612,22.2717855 48.9199782,22.4327783 C48.3274336,22.5940703 47.7391395,22.6758634 47.1540839,22.6758634 C46.1262644,22.6758634 45.1873013,22.4081406 44.3393199,21.8735927 C43.4894155,21.339344 42.8299756,20.6497882 42.3587736,19.8061222 C41.8883812,18.9625559 41.6523754,18.0625324 41.6523754,17.105952 C41.6523754,16.0367564 41.9093303,15.069902 42.42324,14.2049897 C42.9371498,13.3399777 43.607216,12.6717679 44.4354629,12.2002605 C45.2623941,11.7292519 46.168871,11.4931491 47.1540839,11.4931491 C48.109948,11.4931491 48.9697702,11.7151875 49.7329434,12.1578677 C50.4967238,12.6016453 51.0850179,13.188461 51.4996473,13.9205093 C51.9131635,14.6510614 52.1203264,15.4531327 52.1203264,16.324728 C52.1203264,16.7751886 52.0021211,17.1799648 51.7669249,17.538458 C51.5317287,17.8969512 51.2707257,18.0761979 50.9857376,18.0761979 L44.4354629,18.0761979 Z" id="Fill-3" fill="#FFFFFF"></path>
        <path d="M56.0799009,22.4861034 C55.4374631,22.4861034 54.8808456,22.2359362 54.4104532,21.7367987 C53.9392512,21.2380602 53.7039538,20.6497483 53.7039538,19.9756533 L53.7039538,8.77179252 C53.7039538,8.46287391 53.9214395,8.16752098 54.3571191,7.88543449 C54.791888,7.60444523 55.2592443,7.46419996 55.7584796,7.46419996 C56.2870638,7.46419996 56.5511029,7.70299595 56.5511029,8.18108666 L56.5511029,19.0677498 C56.5511029,19.2508866 56.5898637,19.4029021 56.6689034,19.5217016 C56.7468299,19.6409998 56.886389,19.7430417 57.0859617,19.8276278 C57.3140737,19.9261785 57.4287369,20.1229807 57.4287369,20.4179346 C57.4287369,20.9384181 57.2856356,21.4134167 57.0006474,21.8420325 C56.7144448,22.2718453 56.4080016,22.4861034 56.0799009,22.4861034" id="Fill-5" fill="#FFFFFF"></path>
        <path d="M60.403574,22.4861034 C60.0754733,22.4861034 59.7188333,22.2183806 59.3334516,21.6842316 C59.1049348,21.3183571 58.9910812,21.0444499 58.9910812,20.8613131 L58.9910812,12.9913196 C58.9910812,12.6827002 59.2084657,12.3873473 59.6437406,12.1052608 C60.0794203,11.8242715 60.5458657,11.6840263 61.0460118,11.6840263 C61.5737864,11.6840263 61.8378255,11.922922 61.8378255,12.4010127 L61.8378255,20.2702083 C61.8378255,20.6497483 61.7627328,21.0160218 61.6132557,21.367832 C61.4630701,21.7193428 61.2780707,21.9939482 61.057043,22.1907505 C60.8356104,22.3875527 60.618226,22.4861034 60.403574,22.4861034 M60.403574,10.3331432 C60.0327656,10.3331432 59.6472827,10.0455706 59.2480361,9.4681312 C58.9764068,9.06016312 58.8411993,8.74416241 58.8411993,8.51853312 C58.8411993,8.16752098 59.0839858,7.83625887 59.5686478,7.52694127 C60.0537146,7.2179229 60.5755182,7.06291498 61.1321357,7.06291498 C61.7310562,7.06291498 62.0311236,7.33013906 62.0311236,7.86478672 C62.0311236,8.28632048 61.9485418,8.69159538 61.7843902,9.07731972 C61.6203399,9.46503902 61.4135818,9.77086546 61.1638123,9.99529778 C60.9135369,10.2209271 60.6605289,10.3331432 60.403574,10.3331432" id="Fill-7" fill="#FFFFFF"></path>
        <g id="Group-11" transform="translate(63.251988, 11.417620)" fill="#FFFFFF">
            <path d="M5.67103158,8.45205128 C6.31346937,8.45205128 6.91319942,8.27589685 7.46981692,7.9248847 L7.46981692,3.13519979 C6.9412327,2.83994661 6.34899169,2.69192102 5.69279026,2.69192102 C4.87942029,2.69192102 4.19751326,2.96263627 3.64878961,3.50416652 C3.09925634,4.04599601 2.8244897,4.72517808 2.8244897,5.54031626 C2.8244897,6.35655166 3.09925634,7.04620724 3.64878961,7.60768703 C4.19751326,8.17076278 4.87152644,8.45205128 5.67103158,8.45205128 M5.47915034,11.0684334 C4.45122963,11.0684334 3.51945195,10.815174 2.68533533,10.3086552 C1.85000427,9.80213636 1.20088707,9.1378167 0.737174091,8.31449921 C0.273461116,7.49237869 0.0414022214,6.5954474 0.0414022214,5.62520155 C0.0414022214,4.58373584 0.305542524,3.63473626 0.83321591,2.77690606 C1.3609905,1.91847738 2.04654085,1.25415772 2.88895613,0.782650355 C3.73056178,0.31164173 4.63622905,0.0755389309 5.60696996,0.0755389309 C6.4352168,0.0755389309 7.24130013,0.301467465 8.02643441,0.751529074 C8.52526489,0.42814704 9.02460139,0.266456023 9.5246463,0.266456023 C10.0524209,0.266456023 10.3161564,0.50525201 10.3161564,0.983342721 L10.3161564,8.85263803 C10.3161564,9.23207827 10.241772,9.59835182 10.0919913,9.95026169 C9.94170461,10.3016728 9.7567052,10.576378 9.53537384,10.7731802 C9.31394128,10.9698826 9.09655685,11.0684334 8.88230971,11.0684334 C8.5541078,11.0684334 8.19716418,10.8008103 7.81249089,10.2665616 C7.66938959,10.0418301 7.56940085,9.84422989 7.51242345,9.67625477 C7.39786145,9.98527313 7.24443743,10.252996 7.05194898,10.4774283 C6.85976414,10.7029578 6.65654815,10.8502852 6.44189621,10.9204078 C6.1426384,11.0185595 5.8212171,11.0684334 5.47915034,11.0684334" id="Fill-9"></path>
        </g>
        <path d="M16.5769596,16.4624696 C9.47360954,19.8264607 3.97362146,20.7532166 1.53705367,18.2526416 C2.35457297,19.8552878 3.44817455,21.4743924 4.69469413,22.9336015 C7.66055455,25.4214088 12.7302267,24.4790923 18.9050376,20.9484228 C22.5589784,18.859307 25.2980425,16.1357959 26.5468898,13.3437581 C27.0285157,11.3416224 27.3026752,9.19096227 27.3026752,6.9246946 C27.3026752,6.64909171 27.291644,6.3832641 27.2698853,6.12691252 C26.8824795,9.516838 22.3981666,13.705942 16.5769596,16.4624696" id="Fill-12" fill="#FFFFFF"></path>
        <g id="Group-16" transform="translate(0.000000, 0.046383)">
            <mask id="mask-2" fill="white">
                <use xlink:href="#path-1"></use>
            </mask>
            <g id="Clip-15"></g>
            <path d="M15.4534525,13.535144 C22.1602885,10.3469084 26.8473114,5.82245262 26.1270484,2.78962389 C24.6957318,0.816514698 22.1285107,0.0533450684 19.3889406,0.0533450684 C10.6838478,0.0533450684 3.0360954e-05,5.70834125 3.0360954e-05,12.9232917 C3.0360954e-05,13.7113982 0.150013475,14.5789039 0.423565674,15.4887027 C2.46746512,17.9697272 8.46152713,16.8591363 15.4534525,13.535144" id="Fill-14" fill="#FFFFFF" mask="url(#mask-2)"></path>
        </g>
        <g id="Group-19" transform="translate(6.477004, 16.205510)">
            <mask id="mask-4" fill="white">
                <use xlink:href="#path-3"></use>
            </mask>
            <g id="Clip-18"></g>
            <path d="M8.69240194,8.36029338 L8.69240194,8.36029338 C4.12105426,10.1876712 1.53430095,9.69890747 0.00390644279,8.60557296 C2.25102188,10.7156357 4.76126558,12.1692589 6.97650201,12.1692589 C10.9985188,12.1692589 16.4802903,7.44091885 19.1823141,0.0742521856 C17.6592062,2.77502083 14.5034886,6.04524908 8.69240194,8.36029338" id="Fill-17" fill="#FFFFFF" mask="url(#mask-4)"></path>
        </g>
    </g>
</svg>