
<svg width="17px" height="12px" viewBox="0 10 17 12" version="1.1" xmlns="http://www.w3.org/2000/svg" xmlns:xlink="http://www.w3.org/1999/xlink">
    <!-- Generator: Sketch 3.8.3 (29802) - http://www.bohemiancoding.com/sketch -->
    <desc>Created with Sketch.</desc>
    <defs></defs>
    <path d="M7.94974747,8.5 C7.94974747,8.22385763 8.17360509,8 8.44974747,8 C8.72588984,8 8.94974747,8.22385763 8.94974747,8.5 L8.94974747,17.9282317 L8.94974747,22.2426407 L13.0459415,18.1464466 C13.2412037,17.9511845 13.5577862,17.9511845 13.7530483,18.1464466 C13.9483105,18.3417088 13.9483105,18.6582912 13.7530483,18.8535534 L8.80330086,23.8033009 C8.60803871,23.998563 8.29145622,23.998563 8.09619408,23.8033009 L3.14644661,18.8535534 C2.95118446,18.6582912 2.95118446,18.3417088 3.14644661,18.1464466 C3.34170876,17.9511845 3.65829124,17.9511845 3.85355339,18.1464466 L7.94974747,22.2426407 L7.94974747,8.5 Z" id="Combined-Shape-Copy" stroke="none" fill="#E8B12A" fill-rule="evenodd" transform="translate(8.449747, 15.974874) rotate(-90.000000) translate(-8.449747, -15.974874) "></path>
</svg>