
<svg width="11px" height="16px" viewBox="566 438 11 16" version="1.1" xmlns="http://www.w3.org/2000/svg" xmlns:xlink="http://www.w3.org/1999/xlink">
    <!-- Generator: Sketch 3.8.3 (29802) - http://www.bohemiancoding.com/sketch -->
    <desc>Created with Sketch.</desc>
    <defs></defs>
    <path d="M570.949747,452.242641 L570.949747,438.5 C570.949747,438.223858 571.173605,438 571.449747,438 C571.72589,438 571.949747,438.223858 571.949747,438.5 L571.949747,452.242641 L576.045942,448.146447 C576.241204,447.951184 576.557786,447.951184 576.753048,448.146447 C576.94831,448.341709 576.94831,448.658291 576.753048,448.853553 L571.803301,453.803301 C571.608039,453.998563 571.291456,453.998563 571.096194,453.803301 L566.146447,448.853553 C565.951184,448.658291 565.951184,448.341709 566.146447,448.146447 C566.341709,447.951184 566.658291,447.951184 566.853553,448.146447 L570.949747,452.242641 L570.949747,452.242641 Z" id="Combined-Shape-Copy" stroke="none" fill="#80D423" fill-rule="evenodd" transform="translate(571.449747, 445.974874) rotate(-180.000000) translate(-571.449747, -445.974874) "></path>
</svg>