
<svg width="15px" height="16px" viewBox="394 275 15 16" version="1.1" xmlns="http://www.w3.org/2000/svg" xmlns:xlink="http://www.w3.org/1999/xlink">
    <!-- Generator: Sketch 3.8.3 (29802) - http://www.bohemiancoding.com/sketch -->
    <desc>Created with Sketch.</desc>
    <defs></defs>
    <path d="M409,281.197183 C409,277.760563 406.297794,275 402.933824,275 L396.316176,275 C395.709559,275 395.213235,275.507042 395.213235,276.126761 C395.213235,276.746479 395.709559,277.253521 396.316176,277.253521 L402.933824,277.253521 C405.084559,277.253521 406.794118,279 406.794118,281.197183 C406.794118,283.394366 405.084559,285.140845 402.933824,285.140845 L397.805147,285.140845 L399.404412,283.450704 C399.845588,283 399.845588,282.323944 399.404412,281.873239 C398.963235,281.422535 398.301471,281.422535 397.860294,281.873239 L394.330882,285.478873 C394.110294,285.704225 394,285.985915 394,286.267606 C394,286.549296 394.110294,286.830986 394.330882,287.056338 L397.860294,290.661972 C398.080882,290.887324 398.356618,291 398.632353,291 C398.908088,291 399.183824,290.887324 399.404412,290.661972 C399.845588,290.211268 399.845588,289.535211 399.404412,289.084507 L397.805147,287.450704 L402.933824,287.450704 C406.297794,287.394366 409,284.633803 409,281.197183" id="Page-1-Copy-3" stroke="none" fill="#008BB3" fill-rule="evenodd"></path>
</svg>