<svg width="15" height="16" viewBox="394 275 15 16"><path d="M409 281.197c0-3.436-2.702-6.197-6.066-6.197h-6.618c-.606 0-1.103.507-1.103 1.127s.497 1.127 1.103 1.127h6.618c2.15 0 3.86 1.746 3.86 3.943s-1.71 3.944-3.86 3.944h-5.129l1.6-1.69a1.106 1.106 0 0 0 0-1.578 1.05 1.05 0 0 0-1.545 0l-3.53 3.606c-.22.225-.33.507-.33.789 0 .281.11.563.33.788l3.53 3.606c.22.225.497.338.772.338.276 0 .552-.113.772-.338a1.106 1.106 0 0 0 0-1.577l-1.599-1.634h5.129c3.364-.057 6.066-2.817 6.066-6.254" fill="#008BB3" fill-rule="evenodd"/></svg>